<?xml version="1.0" encoding="UTF-8" standalone="no"?>
<!DOCTYPE svg PUBLIC "-//W3C//DTD SVG 1.1//EN"
 "http://www.w3.org/Graphics/SVG/1.1/DTD/svg11.dtd">
<!-- Generated by graphviz version 2.40.1 (20161225.0304)
 -->
<!-- Title: dependencies Pages: 1 -->
<svg width="504pt" height="284pt"
 viewBox="0.00 0.00 504.00 284.00" xmlns="http://www.w3.org/2000/svg" xmlns:xlink="http://www.w3.org/1999/xlink">
<g id="graph0" class="graph" transform="scale(1 1) rotate(0) translate(4 280)">
<title>dependencies</title>
<polygon fill="#ffffff" stroke="transparent" points="-4,4 -4,-280 500,-280 500,4 -4,4"/>
<text text-anchor="start" x="227.0091" y="-42.4" font-family="sans-serif" font-weight="bold" font-size="14.00" fill="#000000">Legend</text>
<polygon fill="#ffffb3" stroke="transparent" points="14,-10 14,-30 34,-30 34,-10 14,-10"/>
<text text-anchor="start" x="37.629" y="-15.4" font-family="sans-serif" font-size="14.00" fill="#000000"> &#160;Declarations</text>
<polygon fill="#8dd3c7" stroke="transparent" points="127,-10 127,-30 147,-30 147,-10 127,-10"/>
<text text-anchor="start" x="150.7251" y="-15.4" font-family="sans-serif" font-size="14.00" fill="#000000"> &#160;Module</text>
<polygon fill="#80b1d3" stroke="transparent" points="213,-10 213,-30 233,-30 233,-10 213,-10"/>
<text text-anchor="start" x="236.7812" y="-15.4" font-family="sans-serif" font-size="14.00" fill="#000000"> &#160;Bootstrap</text>
<polygon fill="#fdb462" stroke="transparent" points="310,-10 310,-30 330,-30 330,-10 310,-10"/>
<text text-anchor="start" x="333.6732" y="-15.4" font-family="sans-serif" font-size="14.00" fill="#000000"> &#160;Providers</text>
<polygon fill="#fb8072" stroke="transparent" points="406,-10 406,-30 426,-30 426,-10 406,-10"/>
<text text-anchor="start" x="429.7258" y="-15.4" font-family="sans-serif" font-size="14.00" fill="#000000"> &#160;Exports</text>
<g id="clust1" class="cluster">
<title>cluster_NavigationModule</title>
<polygon fill="none" stroke="#000000" stroke-dasharray="1,5" points="22,-70 22,-268 474,-268 474,-70 22,-70"/>
</g>
<g id="clust2" class="cluster">
<title>cluster_NavigationModule_declarations</title>
<polygon fill="none" stroke="#000000" points="182,-78 182,-130 466,-130 466,-78 182,-78"/>
</g>
<g id="clust5" class="cluster">
<title>cluster_NavigationModule_imports</title>
<polygon fill="none" stroke="#000000" points="30,-78 30,-130 174,-130 174,-78 30,-78"/>
</g>
<g id="clust6" class="cluster">
<title>cluster_NavigationModule_exports</title>
<polygon fill="none" stroke="#000000" points="105,-208 105,-260 396,-260 396,-208 105,-208"/>
</g>
<!-- SidebarComponent -->
<g id="node1" class="node">
<title>SidebarComponent</title>
<polygon fill="#ffffb3" stroke="#000000" points="458.0954,-122 333.9046,-122 333.9046,-86 458.0954,-86 458.0954,-122"/>
<text text-anchor="middle" x="396" y="-99.8" font-family="Times,serif" font-size="14.00" fill="#000000">SidebarComponent</text>
</g>
<!-- NavigationModule -->
<g id="node3" class="node">
<title>NavigationModule</title>
<polygon fill="#8dd3c7" stroke="#000000" points="313.7576,-187 310.7576,-191 289.7576,-191 286.7576,-187 192.2424,-187 192.2424,-151 313.7576,-151 313.7576,-187"/>
<text text-anchor="middle" x="253" y="-164.8" font-family="Times,serif" font-size="14.00" fill="#000000">NavigationModule</text>
</g>
<!-- SidebarComponent&#45;&gt;NavigationModule -->
<g id="edge1" class="edge">
<title>SidebarComponent&#45;&gt;NavigationModule</title>
<path fill="none" stroke="#000000" d="M360.875,-122.1061C360.875,-141.3391 360.875,-169 360.875,-169 360.875,-169 323.8733,-169 323.8733,-169"/>
<polygon fill="#000000" stroke="#000000" points="323.8733,-165.5001 313.8733,-169 323.8732,-172.5001 323.8733,-165.5001"/>
</g>
<!-- ToolbarComponent -->
<g id="node2" class="node">
<title>ToolbarComponent</title>
<polygon fill="#ffffb3" stroke="#000000" points="315.6513,-122 190.3487,-122 190.3487,-86 315.6513,-86 315.6513,-122"/>
<text text-anchor="middle" x="253" y="-99.8" font-family="Times,serif" font-size="14.00" fill="#000000">ToolbarComponent</text>
</g>
<!-- ToolbarComponent&#45;&gt;NavigationModule -->
<g id="edge2" class="edge">
<title>ToolbarComponent&#45;&gt;NavigationModule</title>
<path fill="none" stroke="#000000" d="M253,-122.1061C253,-122.1061 253,-140.991 253,-140.991"/>
<polygon fill="#000000" stroke="#000000" points="249.5001,-140.9909 253,-150.991 256.5001,-140.991 249.5001,-140.9909"/>
</g>
<!-- SidebarComponent  -->
<g id="node5" class="node">
<title>SidebarComponent </title>
<polygon fill="#fb8072" stroke="#000000" points="387.596,-252 260.404,-252 260.404,-216 387.596,-216 387.596,-252"/>
<text text-anchor="middle" x="324" y="-229.8" font-family="Times,serif" font-size="14.00" fill="#000000">SidebarComponent </text>
</g>
<!-- NavigationModule&#45;&gt;SidebarComponent  -->
<g id="edge4" class="edge">
<title>NavigationModule&#45;&gt;SidebarComponent </title>
<path fill="none" stroke="#000000" stroke-dasharray="5,2" d="M287.0405,-187.1061C287.0405,-187.1061 287.0405,-205.991 287.0405,-205.991"/>
<polygon fill="#000000" stroke="#000000" points="283.5406,-205.9909 287.0405,-215.991 290.5406,-205.991 283.5406,-205.9909"/>
</g>
<!-- ToolbarComponent  -->
<g id="node6" class="node">
<title>ToolbarComponent </title>
<polygon fill="#fb8072" stroke="#000000" points="242.6509,-252 113.3491,-252 113.3491,-216 242.6509,-216 242.6509,-252"/>
<text text-anchor="middle" x="178" y="-229.8" font-family="Times,serif" font-size="14.00" fill="#000000">ToolbarComponent </text>
</g>
<!-- NavigationModule&#45;&gt;ToolbarComponent  -->
<g id="edge5" class="edge">
<title>NavigationModule&#45;&gt;ToolbarComponent </title>
<path fill="none" stroke="#000000" stroke-dasharray="5,2" d="M217.3484,-187.1061C217.3484,-187.1061 217.3484,-205.991 217.3484,-205.991"/>
<polygon fill="#000000" stroke="#000000" points="213.8484,-205.9909 217.3484,-215.991 220.8484,-205.991 213.8484,-205.9909"/>
</g>
<!-- AppRoutingModule -->
<g id="node4" class="node">
<title>AppRoutingModule</title>
<polygon fill="#8dd3c7" stroke="#000000" points="166.2744,-122 163.2744,-126 142.2744,-126 139.2744,-122 37.7256,-122 37.7256,-86 166.2744,-86 166.2744,-122"/>
<text text-anchor="middle" x="102" y="-99.8" font-family="Times,serif" font-size="14.00" fill="#000000">AppRoutingModule</text>
</g>
<!-- AppRoutingModule&#45;&gt;NavigationModule -->
<g id="edge3" class="edge">
<title>AppRoutingModule&#45;&gt;NavigationModule</title>
<path fill="none" stroke="#000000" d="M139.9058,-122.1061C139.9058,-141.3391 139.9058,-169 139.9058,-169 139.9058,-169 182.1493,-169 182.1493,-169"/>
<polygon fill="#000000" stroke="#000000" points="182.1494,-172.5001 192.1493,-169 182.1493,-165.5001 182.1494,-172.5001"/>
</g>
</g>
</svg>
