<?xml version="1.0" encoding="UTF-8" standalone="no"?>
<!DOCTYPE svg PUBLIC "-//W3C//DTD SVG 1.1//EN"
 "http://www.w3.org/Graphics/SVG/1.1/DTD/svg11.dtd">
<!-- Generated by graphviz version 2.40.1 (20161225.0304)
 -->
<!-- Title: dependencies Pages: 1 -->
<svg width="846pt" height="284pt"
 viewBox="0.00 0.00 846.00 284.00" xmlns="http://www.w3.org/2000/svg" xmlns:xlink="http://www.w3.org/1999/xlink">
<g id="graph0" class="graph" transform="scale(1 1) rotate(0) translate(4 280)">
<title>dependencies</title>
<polygon fill="#ffffff" stroke="transparent" points="-4,4 -4,-280 842,-280 842,4 -4,4"/>
<text text-anchor="start" x="398.0091" y="-42.4" font-family="sans-serif" font-weight="bold" font-size="14.00" fill="#000000">Legend</text>
<polygon fill="#ffffb3" stroke="transparent" points="185,-10 185,-30 205,-30 205,-10 185,-10"/>
<text text-anchor="start" x="208.629" y="-15.4" font-family="sans-serif" font-size="14.00" fill="#000000"> &#160;Declarations</text>
<polygon fill="#8dd3c7" stroke="transparent" points="298,-10 298,-30 318,-30 318,-10 298,-10"/>
<text text-anchor="start" x="321.7251" y="-15.4" font-family="sans-serif" font-size="14.00" fill="#000000"> &#160;Module</text>
<polygon fill="#80b1d3" stroke="transparent" points="384,-10 384,-30 404,-30 404,-10 384,-10"/>
<text text-anchor="start" x="407.7812" y="-15.4" font-family="sans-serif" font-size="14.00" fill="#000000"> &#160;Bootstrap</text>
<polygon fill="#fdb462" stroke="transparent" points="481,-10 481,-30 501,-30 501,-10 481,-10"/>
<text text-anchor="start" x="504.6732" y="-15.4" font-family="sans-serif" font-size="14.00" fill="#000000"> &#160;Providers</text>
<polygon fill="#fb8072" stroke="transparent" points="577,-10 577,-30 597,-30 597,-10 577,-10"/>
<text text-anchor="start" x="600.7258" y="-15.4" font-family="sans-serif" font-size="14.00" fill="#000000"> &#160;Exports</text>
<g id="clust1" class="cluster">
<title>cluster_AppModule</title>
<polygon fill="none" stroke="#000000" stroke-dasharray="1,5" points="8,-70 8,-268 830,-268 830,-70 8,-70"/>
</g>
<g id="clust2" class="cluster">
<title>cluster_AppModule_declarations</title>
<polygon fill="none" stroke="#000000" points="700,-78 700,-130 822,-130 822,-78 700,-78"/>
</g>
<g id="clust4" class="cluster">
<title>cluster_AppModule_imports</title>
<polygon fill="none" stroke="#000000" points="284,-78 284,-130 692,-130 692,-78 284,-78"/>
</g>
<g id="clust6" class="cluster">
<title>cluster_AppModule_bootstrap</title>
<polygon fill="none" stroke="#000000" points="415,-208 415,-260 539,-260 539,-208 415,-208"/>
</g>
<g id="clust7" class="cluster">
<title>cluster_AppModule_providers</title>
<polygon fill="none" stroke="#000000" points="16,-78 16,-130 276,-130 276,-78 16,-78"/>
</g>
<!-- AppComponent -->
<g id="node1" class="node">
<title>AppComponent</title>
<polygon fill="#ffffb3" stroke="#000000" points="813.9399,-122 708.0601,-122 708.0601,-86 813.9399,-86 813.9399,-122"/>
<text text-anchor="middle" x="761" y="-99.8" font-family="Times,serif" font-size="14.00" fill="#000000">AppComponent</text>
</g>
<!-- AppModule -->
<g id="node2" class="node">
<title>AppModule</title>
<polygon fill="#8dd3c7" stroke="#000000" points="518.6571,-187 515.6571,-191 494.6571,-191 491.6571,-187 435.3429,-187 435.3429,-151 518.6571,-151 518.6571,-187"/>
<text text-anchor="middle" x="477" y="-164.8" font-family="Times,serif" font-size="14.00" fill="#000000">AppModule</text>
</g>
<!-- AppComponent&#45;&gt;AppModule -->
<g id="edge1" class="edge">
<title>AppComponent&#45;&gt;AppModule</title>
<path fill="none" stroke="#000000" d="M761,-122.2843C761,-143.3211 761,-175 761,-175 761,-175 528.9052,-175 528.9052,-175"/>
<polygon fill="#000000" stroke="#000000" points="528.9052,-171.5001 518.9052,-175 528.9051,-178.5001 528.9052,-171.5001"/>
</g>
<!-- AppComponent  -->
<g id="node6" class="node">
<title>AppComponent </title>
<polygon fill="#80b1d3" stroke="#000000" points="531.439,-252 422.561,-252 422.561,-216 531.439,-216 531.439,-252"/>
<text text-anchor="middle" x="477" y="-229.8" font-family="Times,serif" font-size="14.00" fill="#000000">AppComponent </text>
</g>
<!-- AppModule&#45;&gt;AppComponent  -->
<g id="edge5" class="edge">
<title>AppModule&#45;&gt;AppComponent </title>
<path fill="none" stroke="#000000" stroke-dasharray="1,5" d="M477,-187.1061C477,-187.1061 477,-205.991 477,-205.991"/>
<polygon fill="#000000" stroke="#000000" points="473.5001,-205.9909 477,-215.991 480.5001,-205.991 473.5001,-205.9909"/>
</g>
<!-- AppRoutingModule -->
<g id="node3" class="node">
<title>AppRoutingModule</title>
<polygon fill="#8dd3c7" stroke="#000000" points="684.2744,-122 681.2744,-126 660.2744,-126 657.2744,-122 555.7256,-122 555.7256,-86 684.2744,-86 684.2744,-122"/>
<text text-anchor="middle" x="620" y="-99.8" font-family="Times,serif" font-size="14.00" fill="#000000">AppRoutingModule</text>
</g>
<!-- AppRoutingModule&#45;&gt;AppModule -->
<g id="edge2" class="edge">
<title>AppRoutingModule&#45;&gt;AppModule</title>
<path fill="none" stroke="#000000" d="M620,-122.0225C620,-139.3734 620,-163 620,-163 620,-163 528.7459,-163 528.7459,-163"/>
<polygon fill="#000000" stroke="#000000" points="528.746,-159.5001 518.7459,-163 528.7459,-166.5001 528.746,-159.5001"/>
</g>
<!-- NavigationModule -->
<g id="node4" class="node">
<title>NavigationModule</title>
<polygon fill="#8dd3c7" stroke="#000000" points="537.7576,-122 534.7576,-126 513.7576,-126 510.7576,-122 416.2424,-122 416.2424,-86 537.7576,-86 537.7576,-122"/>
<text text-anchor="middle" x="477" y="-99.8" font-family="Times,serif" font-size="14.00" fill="#000000">NavigationModule</text>
</g>
<!-- NavigationModule&#45;&gt;AppModule -->
<g id="edge3" class="edge">
<title>NavigationModule&#45;&gt;AppModule</title>
<path fill="none" stroke="#000000" d="M477,-122.1061C477,-122.1061 477,-140.991 477,-140.991"/>
<polygon fill="#000000" stroke="#000000" points="473.5001,-140.9909 477,-150.991 480.5001,-140.991 473.5001,-140.9909"/>
</g>
<!-- SecurityModule -->
<g id="node5" class="node">
<title>SecurityModule</title>
<polygon fill="#8dd3c7" stroke="#000000" points="398.2036,-122 395.2036,-126 374.2036,-126 371.2036,-122 291.7964,-122 291.7964,-86 398.2036,-86 398.2036,-122"/>
<text text-anchor="middle" x="345" y="-99.8" font-family="Times,serif" font-size="14.00" fill="#000000">SecurityModule</text>
</g>
<!-- SecurityModule&#45;&gt;AppModule -->
<g id="edge4" class="edge">
<title>SecurityModule&#45;&gt;AppModule</title>
<path fill="none" stroke="#000000" d="M345,-122.0225C345,-139.3734 345,-163 345,-163 345,-163 425.2344,-163 425.2344,-163"/>
<polygon fill="#000000" stroke="#000000" points="425.2344,-166.5001 435.2344,-163 425.2343,-159.5001 425.2344,-166.5001"/>
</g>
<!-- ApiTokenInterceptorService -->
<g id="node7" class="node">
<title>ApiTokenInterceptorService</title>
<ellipse fill="#fdb462" stroke="#000000" cx="146" cy="-104" rx="121.5085" ry="18"/>
<text text-anchor="middle" x="146" y="-99.8" font-family="Times,serif" font-size="14.00" fill="#000000">ApiTokenInterceptorService</text>
</g>
<!-- ApiTokenInterceptorService&#45;&gt;AppModule -->
<g id="edge6" class="edge">
<title>ApiTokenInterceptorService&#45;&gt;AppModule</title>
<path fill="none" stroke="#000000" d="M146,-122.2843C146,-143.3211 146,-175 146,-175 146,-175 425.0786,-175 425.0786,-175"/>
<polygon fill="#000000" stroke="#000000" points="425.0787,-178.5001 435.0786,-175 425.0786,-171.5001 425.0787,-178.5001"/>
</g>
</g>
</svg>
