<?xml version="1.0" encoding="UTF-8" standalone="no"?>
<!DOCTYPE svg PUBLIC "-//W3C//DTD SVG 1.1//EN"
 "http://www.w3.org/Graphics/SVG/1.1/DTD/svg11.dtd">
<!-- Generated by graphviz version 2.40.1 (20161225.0304)
 -->
<!-- Title: dependencies Pages: 1 -->
<svg width="1400pt" height="284pt"
 viewBox="0.00 0.00 1400.00 284.00" xmlns="http://www.w3.org/2000/svg" xmlns:xlink="http://www.w3.org/1999/xlink">
<g id="graph0" class="graph" transform="scale(1 1) rotate(0) translate(4 280)">
<title>dependencies</title>
<polygon fill="#ffffff" stroke="transparent" points="-4,4 -4,-280 1396,-280 1396,4 -4,4"/>
<text text-anchor="start" x="675.0091" y="-42.4" font-family="sans-serif" font-weight="bold" font-size="14.00" fill="#000000">Legend</text>
<polygon fill="#ffffb3" stroke="transparent" points="462,-10 462,-30 482,-30 482,-10 462,-10"/>
<text text-anchor="start" x="485.629" y="-15.4" font-family="sans-serif" font-size="14.00" fill="#000000"> &#160;Declarations</text>
<polygon fill="#8dd3c7" stroke="transparent" points="575,-10 575,-30 595,-30 595,-10 575,-10"/>
<text text-anchor="start" x="598.7251" y="-15.4" font-family="sans-serif" font-size="14.00" fill="#000000"> &#160;Module</text>
<polygon fill="#80b1d3" stroke="transparent" points="661,-10 661,-30 681,-30 681,-10 661,-10"/>
<text text-anchor="start" x="684.7812" y="-15.4" font-family="sans-serif" font-size="14.00" fill="#000000"> &#160;Bootstrap</text>
<polygon fill="#fdb462" stroke="transparent" points="758,-10 758,-30 778,-30 778,-10 758,-10"/>
<text text-anchor="start" x="781.6732" y="-15.4" font-family="sans-serif" font-size="14.00" fill="#000000"> &#160;Providers</text>
<polygon fill="#fb8072" stroke="transparent" points="854,-10 854,-30 874,-30 874,-10 854,-10"/>
<text text-anchor="start" x="877.7258" y="-15.4" font-family="sans-serif" font-size="14.00" fill="#000000"> &#160;Exports</text>
<g id="clust1" class="cluster">
<title>cluster_PagesModule</title>
<polygon fill="none" stroke="#000000" stroke-dasharray="1,5" points="8,-70 8,-268 1384,-268 1384,-70 8,-70"/>
</g>
<g id="clust2" class="cluster">
<title>cluster_PagesModule_declarations</title>
<polygon fill="none" stroke="#000000" points="16,-78 16,-130 1376,-130 1376,-78 16,-78"/>
</g>
<g id="clust12" class="cluster">
<title>cluster_PagesModule_exports</title>
<polygon fill="none" stroke="#000000" points="480,-208 480,-260 1143,-260 1143,-208 480,-208"/>
</g>
<!-- AdminPageComponent -->
<g id="node1" class="node">
<title>AdminPageComponent</title>
<polygon fill="#ffffb3" stroke="#000000" points="1367.9326,-122 1220.0674,-122 1220.0674,-86 1367.9326,-86 1367.9326,-122"/>
<text text-anchor="middle" x="1294" y="-99.8" font-family="Times,serif" font-size="14.00" fill="#000000">AdminPageComponent</text>
</g>
<!-- PagesModule -->
<g id="node9" class="node">
<title>PagesModule</title>
<polygon fill="#8dd3c7" stroke="#000000" points="861.2064,-187 858.2064,-191 837.2064,-191 834.2064,-187 768.7936,-187 768.7936,-151 861.2064,-151 861.2064,-187"/>
<text text-anchor="middle" x="815" y="-164.8" font-family="Times,serif" font-size="14.00" fill="#000000">PagesModule</text>
</g>
<!-- AdminPageComponent&#45;&gt;PagesModule -->
<g id="edge1" class="edge">
<title>AdminPageComponent&#45;&gt;PagesModule</title>
<path fill="none" stroke="#000000" d="M1318.572,-122.2843C1318.572,-143.3211 1318.572,-175 1318.572,-175 1318.572,-175 871.4722,-175 871.4722,-175"/>
<polygon fill="#000000" stroke="#000000" points="871.4723,-171.5001 861.4722,-175 871.4722,-178.5001 871.4723,-171.5001"/>
</g>
<!-- AdminPageComponent&#45;&gt;PagesModule -->
<g id="edge2" class="edge">
<title>AdminPageComponent&#45;&gt;PagesModule</title>
<path fill="none" stroke="#000000" d="M1269.428,-122.1061C1269.428,-141.3391 1269.428,-169 1269.428,-169 1269.428,-169 871.4962,-169 871.4962,-169"/>
<polygon fill="#000000" stroke="#000000" points="871.4962,-165.5001 861.4962,-169 871.4962,-172.5001 871.4962,-165.5001"/>
</g>
<!-- AllIssuesPageComponent -->
<g id="node2" class="node">
<title>AllIssuesPageComponent</title>
<polygon fill="#ffffb3" stroke="#000000" points="1202.1414,-122 1041.8586,-122 1041.8586,-86 1202.1414,-86 1202.1414,-122"/>
<text text-anchor="middle" x="1122" y="-99.8" font-family="Times,serif" font-size="14.00" fill="#000000">AllIssuesPageComponent</text>
</g>
<!-- AllIssuesPageComponent&#45;&gt;PagesModule -->
<g id="edge3" class="edge">
<title>AllIssuesPageComponent&#45;&gt;PagesModule</title>
<path fill="none" stroke="#000000" d="M1088.375,-122.0225C1088.375,-139.3734 1088.375,-163 1088.375,-163 1088.375,-163 871.3743,-163 871.3743,-163"/>
<polygon fill="#000000" stroke="#000000" points="871.3744,-159.5001 861.3743,-163 871.3743,-166.5001 871.3744,-159.5001"/>
</g>
<!-- CardComponent -->
<g id="node3" class="node">
<title>CardComponent</title>
<polygon fill="#ffffb3" stroke="#000000" points="1023.0452,-122 914.9548,-122 914.9548,-86 1023.0452,-86 1023.0452,-122"/>
<text text-anchor="middle" x="969" y="-99.8" font-family="Times,serif" font-size="14.00" fill="#000000">CardComponent</text>
</g>
<!-- CardComponent&#45;&gt;PagesModule -->
<g id="edge4" class="edge">
<title>CardComponent&#45;&gt;PagesModule</title>
<path fill="none" stroke="#000000" d="M933.875,-122.2396C933.875,-137.5706 933.875,-157 933.875,-157 933.875,-157 871.3006,-157 871.3006,-157"/>
<polygon fill="#000000" stroke="#000000" points="871.3006,-153.5001 861.3006,-157 871.3005,-160.5001 871.3006,-153.5001"/>
</g>
<!-- CommentsListComponent -->
<g id="node4" class="node">
<title>CommentsListComponent</title>
<polygon fill="#ffffb3" stroke="#000000" points="896.7785,-122 733.2215,-122 733.2215,-86 896.7785,-86 896.7785,-122"/>
<text text-anchor="middle" x="815" y="-99.8" font-family="Times,serif" font-size="14.00" fill="#000000">CommentsListComponent</text>
</g>
<!-- CommentsListComponent&#45;&gt;PagesModule -->
<g id="edge5" class="edge">
<title>CommentsListComponent&#45;&gt;PagesModule</title>
<path fill="none" stroke="#000000" d="M815,-122.1061C815,-122.1061 815,-140.991 815,-140.991"/>
<polygon fill="#000000" stroke="#000000" points="811.5001,-140.9909 815,-150.991 818.5001,-140.991 811.5001,-140.9909"/>
</g>
<!-- IssueDetailsPageComponent -->
<g id="node5" class="node">
<title>IssueDetailsPageComponent</title>
<polygon fill="#ffffb3" stroke="#000000" points="715.4608,-122 538.5392,-122 538.5392,-86 715.4608,-86 715.4608,-122"/>
<text text-anchor="middle" x="627" y="-99.8" font-family="Times,serif" font-size="14.00" fill="#000000">IssueDetailsPageComponent</text>
</g>
<!-- IssueDetailsPageComponent&#45;&gt;PagesModule -->
<g id="edge6" class="edge">
<title>IssueDetailsPageComponent&#45;&gt;PagesModule</title>
<path fill="none" stroke="#000000" d="M680.0124,-122.2396C680.0124,-137.5706 680.0124,-157 680.0124,-157 680.0124,-157 758.5449,-157 758.5449,-157"/>
<polygon fill="#000000" stroke="#000000" points="758.545,-160.5001 768.5449,-157 758.5449,-153.5001 758.545,-160.5001"/>
</g>
<!-- ReportIssuePageComponent -->
<g id="node6" class="node">
<title>ReportIssuePageComponent</title>
<polygon fill="#ffffb3" stroke="#000000" points="520.9115,-122 345.0885,-122 345.0885,-86 520.9115,-86 520.9115,-122"/>
<text text-anchor="middle" x="433" y="-99.8" font-family="Times,serif" font-size="14.00" fill="#000000">ReportIssuePageComponent</text>
</g>
<!-- ReportIssuePageComponent&#45;&gt;PagesModule -->
<g id="edge7" class="edge">
<title>ReportIssuePageComponent&#45;&gt;PagesModule</title>
<path fill="none" stroke="#000000" d="M504.2351,-122.0225C504.2351,-139.3734 504.2351,-163 504.2351,-163 504.2351,-163 758.8109,-163 758.8109,-163"/>
<polygon fill="#000000" stroke="#000000" points="758.811,-166.5001 768.8109,-163 758.8109,-159.5001 758.811,-166.5001"/>
</g>
<!-- SignUpPageComponent -->
<g id="node7" class="node">
<title>SignUpPageComponent</title>
<polygon fill="#ffffb3" stroke="#000000" points="327.8243,-122 176.1757,-122 176.1757,-86 327.8243,-86 327.8243,-122"/>
<text text-anchor="middle" x="252" y="-99.8" font-family="Times,serif" font-size="14.00" fill="#000000">SignUpPageComponent</text>
</g>
<!-- SignUpPageComponent&#45;&gt;PagesModule -->
<g id="edge8" class="edge">
<title>SignUpPageComponent&#45;&gt;PagesModule</title>
<path fill="none" stroke="#000000" d="M252,-122.1061C252,-141.3391 252,-169 252,-169 252,-169 758.4484,-169 758.4484,-169"/>
<polygon fill="#000000" stroke="#000000" points="758.4484,-172.5001 768.4484,-169 758.4483,-165.5001 758.4484,-172.5001"/>
</g>
<!-- UserPageComponent -->
<g id="node8" class="node">
<title>UserPageComponent</title>
<polygon fill="#ffffb3" stroke="#000000" points="158.4706,-122 23.5294,-122 23.5294,-86 158.4706,-86 158.4706,-122"/>
<text text-anchor="middle" x="91" y="-99.8" font-family="Times,serif" font-size="14.00" fill="#000000">UserPageComponent</text>
</g>
<!-- UserPageComponent&#45;&gt;PagesModule -->
<g id="edge9" class="edge">
<title>UserPageComponent&#45;&gt;PagesModule</title>
<path fill="none" stroke="#000000" d="M91,-122.2843C91,-143.3211 91,-175 91,-175 91,-175 758.8856,-175 758.8856,-175"/>
<polygon fill="#000000" stroke="#000000" points="758.8856,-178.5001 768.8856,-175 758.8856,-171.5001 758.8856,-178.5001"/>
</g>
<!-- AllIssuesPageComponent  -->
<g id="node10" class="node">
<title>AllIssuesPageComponent </title>
<polygon fill="#fb8072" stroke="#000000" points="1135.1411,-252 970.8589,-252 970.8589,-216 1135.1411,-216 1135.1411,-252"/>
<text text-anchor="middle" x="1053" y="-229.8" font-family="Times,serif" font-size="14.00" fill="#000000">AllIssuesPageComponent </text>
</g>
<!-- PagesModule&#45;&gt;AllIssuesPageComponent  -->
<g id="edge10" class="edge">
<title>PagesModule&#45;&gt;AllIssuesPageComponent </title>
<path fill="none" stroke="#000000" stroke-dasharray="5,2" d="M861.4229,-181C915.3748,-181 997.1008,-181 997.1008,-181 997.1008,-181 997.1008,-205.7604 997.1008,-205.7604"/>
<polygon fill="#000000" stroke="#000000" points="993.6009,-205.7604 997.1008,-215.7604 1000.6009,-205.7604 993.6009,-205.7604"/>
</g>
<!-- CardComponent  -->
<g id="node11" class="node">
<title>CardComponent </title>
<polygon fill="#fb8072" stroke="#000000" points="953.0442,-252 840.9558,-252 840.9558,-216 953.0442,-216 953.0442,-252"/>
<text text-anchor="middle" x="897" y="-229.8" font-family="Times,serif" font-size="14.00" fill="#000000">CardComponent </text>
</g>
<!-- PagesModule&#45;&gt;CardComponent  -->
<g id="edge11" class="edge">
<title>PagesModule&#45;&gt;CardComponent </title>
<path fill="none" stroke="#000000" stroke-dasharray="5,2" d="M851.0405,-187.1061C851.0405,-187.1061 851.0405,-205.991 851.0405,-205.991"/>
<polygon fill="#000000" stroke="#000000" points="847.5406,-205.9909 851.0405,-215.991 854.5406,-205.991 847.5406,-205.9909"/>
</g>
<!-- ReportIssuePageComponent  -->
<g id="node12" class="node">
<title>ReportIssuePageComponent </title>
<polygon fill="#fb8072" stroke="#000000" points="823.411,-252 644.589,-252 644.589,-216 823.411,-216 823.411,-252"/>
<text text-anchor="middle" x="734" y="-229.8" font-family="Times,serif" font-size="14.00" fill="#000000">ReportIssuePageComponent </text>
</g>
<!-- PagesModule&#45;&gt;ReportIssuePageComponent  -->
<g id="edge12" class="edge">
<title>PagesModule&#45;&gt;ReportIssuePageComponent </title>
<path fill="none" stroke="#000000" stroke-dasharray="5,2" d="M796.1762,-187.1061C796.1762,-187.1061 796.1762,-205.991 796.1762,-205.991"/>
<polygon fill="#000000" stroke="#000000" points="792.6763,-205.9909 796.1762,-215.991 799.6763,-205.991 792.6763,-205.9909"/>
</g>
<!-- UserPageComponent  -->
<g id="node13" class="node">
<title>UserPageComponent </title>
<polygon fill="#fb8072" stroke="#000000" points="626.4714,-252 487.5286,-252 487.5286,-216 626.4714,-216 626.4714,-252"/>
<text text-anchor="middle" x="557" y="-229.8" font-family="Times,serif" font-size="14.00" fill="#000000">UserPageComponent </text>
</g>
<!-- PagesModule&#45;&gt;UserPageComponent  -->
<g id="edge13" class="edge">
<title>PagesModule&#45;&gt;UserPageComponent </title>
<path fill="none" stroke="#000000" stroke-dasharray="5,2" d="M768.7631,-181C700.9234,-181 582.3775,-181 582.3775,-181 582.3775,-181 582.3775,-205.7604 582.3775,-205.7604"/>
<polygon fill="#000000" stroke="#000000" points="578.8775,-205.7604 582.3775,-215.7604 585.8775,-205.7604 578.8775,-205.7604"/>
</g>
</g>
</svg>
