<?xml version="1.0" encoding="UTF-8" standalone="no"?>
<!DOCTYPE svg PUBLIC "-//W3C//DTD SVG 1.1//EN"
 "http://www.w3.org/Graphics/SVG/1.1/DTD/svg11.dtd">
<!-- Generated by graphviz version 2.40.1 (20161225.0304)
 -->
<!-- Title: dependencies Pages: 1 -->
<svg width="923pt" height="284pt"
 viewBox="0.00 0.00 923.00 284.00" xmlns="http://www.w3.org/2000/svg" xmlns:xlink="http://www.w3.org/1999/xlink">
<g id="graph0" class="graph" transform="scale(1 1) rotate(0) translate(4 280)">
<title>dependencies</title>
<polygon fill="#ffffff" stroke="transparent" points="-4,4 -4,-280 919,-280 919,4 -4,4"/>
<text text-anchor="start" x="436.5091" y="-42.4" font-family="sans-serif" font-weight="bold" font-size="14.00" fill="#000000">Legend</text>
<polygon fill="#ffffb3" stroke="transparent" points="223.5,-10 223.5,-30 243.5,-30 243.5,-10 223.5,-10"/>
<text text-anchor="start" x="247.129" y="-15.4" font-family="sans-serif" font-size="14.00" fill="#000000"> &#160;Declarations</text>
<polygon fill="#8dd3c7" stroke="transparent" points="336.5,-10 336.5,-30 356.5,-30 356.5,-10 336.5,-10"/>
<text text-anchor="start" x="360.2251" y="-15.4" font-family="sans-serif" font-size="14.00" fill="#000000"> &#160;Module</text>
<polygon fill="#80b1d3" stroke="transparent" points="422.5,-10 422.5,-30 442.5,-30 442.5,-10 422.5,-10"/>
<text text-anchor="start" x="446.2812" y="-15.4" font-family="sans-serif" font-size="14.00" fill="#000000"> &#160;Bootstrap</text>
<polygon fill="#fdb462" stroke="transparent" points="519.5,-10 519.5,-30 539.5,-30 539.5,-10 519.5,-10"/>
<text text-anchor="start" x="543.1732" y="-15.4" font-family="sans-serif" font-size="14.00" fill="#000000"> &#160;Providers</text>
<polygon fill="#fb8072" stroke="transparent" points="615.5,-10 615.5,-30 635.5,-30 635.5,-10 615.5,-10"/>
<text text-anchor="start" x="639.2258" y="-15.4" font-family="sans-serif" font-size="14.00" fill="#000000"> &#160;Exports</text>
<g id="clust1" class="cluster">
<title>cluster_PagesModule</title>
<polygon fill="none" stroke="#000000" stroke-dasharray="1,5" points="8,-70 8,-268 907,-268 907,-70 8,-70"/>
</g>
<g id="clust2" class="cluster">
<title>cluster_PagesModule_declarations</title>
<polygon fill="none" stroke="#000000" points="16,-78 16,-130 899,-130 899,-78 16,-78"/>
</g>
<g id="clust9" class="cluster">
<title>cluster_PagesModule_exports</title>
<polygon fill="none" stroke="#000000" points="284,-208 284,-260 818,-260 818,-208 284,-208"/>
</g>
<!-- AdminPageComponent -->
<g id="node1" class="node">
<title>AdminPageComponent</title>
<polygon fill="#ffffb3" stroke="#000000" points="890.9326,-122 743.0674,-122 743.0674,-86 890.9326,-86 890.9326,-122"/>
<text text-anchor="middle" x="817" y="-99.8" font-family="Times,serif" font-size="14.00" fill="#000000">AdminPageComponent</text>
</g>
<!-- PagesModule -->
<g id="node6" class="node">
<title>PagesModule</title>
<polygon fill="#8dd3c7" stroke="#000000" points="584.2064,-187 581.2064,-191 560.2064,-191 557.2064,-187 491.7936,-187 491.7936,-151 584.2064,-151 584.2064,-187"/>
<text text-anchor="middle" x="538" y="-164.8" font-family="Times,serif" font-size="14.00" fill="#000000">PagesModule</text>
</g>
<!-- AdminPageComponent&#45;&gt;PagesModule -->
<g id="edge1" class="edge">
<title>AdminPageComponent&#45;&gt;PagesModule</title>
<path fill="none" stroke="#000000" d="M787.8083,-122.1061C787.8083,-141.3391 787.8083,-169 787.8083,-169 787.8083,-169 594.1098,-169 594.1098,-169"/>
<polygon fill="#000000" stroke="#000000" points="594.1099,-165.5001 584.1098,-169 594.1098,-172.5001 594.1099,-165.5001"/>
</g>
<!-- AdminPageComponent&#45;&gt;PagesModule -->
<g id="edge2" class="edge">
<title>AdminPageComponent&#45;&gt;PagesModule</title>
<path fill="none" stroke="#000000" d="M765.5462,-122.027C765.5462,-138.3976 765.5462,-160 765.5462,-160 765.5462,-160 594.3216,-160 594.3216,-160"/>
<polygon fill="#000000" stroke="#000000" points="594.3217,-156.5001 584.3216,-160 594.3216,-163.5001 594.3217,-156.5001"/>
</g>
<!-- AllIssuesPageComponent -->
<g id="node2" class="node">
<title>AllIssuesPageComponent</title>
<polygon fill="#ffffb3" stroke="#000000" points="725.1414,-122 564.8586,-122 564.8586,-86 725.1414,-86 725.1414,-122"/>
<text text-anchor="middle" x="645" y="-99.8" font-family="Times,serif" font-size="14.00" fill="#000000">AllIssuesPageComponent</text>
</g>
<!-- AllIssuesPageComponent&#45;&gt;PagesModule -->
<g id="edge3" class="edge">
<title>AllIssuesPageComponent&#45;&gt;PagesModule</title>
<path fill="none" stroke="#000000" d="M574.3913,-122.1061C574.3913,-122.1061 574.3913,-140.991 574.3913,-140.991"/>
<polygon fill="#000000" stroke="#000000" points="570.8914,-140.9909 574.3913,-150.991 577.8914,-140.991 570.8914,-140.9909"/>
</g>
<!-- IssueDetailsPageComponent -->
<g id="node3" class="node">
<title>IssueDetailsPageComponent</title>
<polygon fill="#ffffb3" stroke="#000000" points="546.4608,-122 369.5392,-122 369.5392,-86 546.4608,-86 546.4608,-122"/>
<text text-anchor="middle" x="458" y="-99.8" font-family="Times,serif" font-size="14.00" fill="#000000">IssueDetailsPageComponent</text>
</g>
<!-- IssueDetailsPageComponent&#45;&gt;PagesModule -->
<g id="edge4" class="edge">
<title>IssueDetailsPageComponent&#45;&gt;PagesModule</title>
<path fill="none" stroke="#000000" d="M519.1887,-122.1061C519.1887,-122.1061 519.1887,-140.991 519.1887,-140.991"/>
<polygon fill="#000000" stroke="#000000" points="515.6887,-140.9909 519.1887,-150.991 522.6887,-140.991 515.6887,-140.9909"/>
</g>
<!-- ReportIssuePageComponent -->
<g id="node4" class="node">
<title>ReportIssuePageComponent</title>
<polygon fill="#ffffb3" stroke="#000000" points="351.9115,-122 176.0885,-122 176.0885,-86 351.9115,-86 351.9115,-122"/>
<text text-anchor="middle" x="264" y="-99.8" font-family="Times,serif" font-size="14.00" fill="#000000">ReportIssuePageComponent</text>
</g>
<!-- ReportIssuePageComponent&#45;&gt;PagesModule -->
<g id="edge5" class="edge">
<title>ReportIssuePageComponent&#45;&gt;PagesModule</title>
<path fill="none" stroke="#000000" d="M321.7351,-122.027C321.7351,-138.3976 321.7351,-160 321.7351,-160 321.7351,-160 481.871,-160 481.871,-160"/>
<polygon fill="#000000" stroke="#000000" points="481.8711,-163.5001 491.871,-160 481.871,-156.5001 481.8711,-163.5001"/>
</g>
<!-- UserPageComponent -->
<g id="node5" class="node">
<title>UserPageComponent</title>
<polygon fill="#ffffb3" stroke="#000000" points="158.4706,-122 23.5294,-122 23.5294,-86 158.4706,-86 158.4706,-122"/>
<text text-anchor="middle" x="91" y="-99.8" font-family="Times,serif" font-size="14.00" fill="#000000">UserPageComponent</text>
</g>
<!-- UserPageComponent&#45;&gt;PagesModule -->
<g id="edge6" class="edge">
<title>UserPageComponent&#45;&gt;PagesModule</title>
<path fill="none" stroke="#000000" d="M91,-122.1061C91,-141.3391 91,-169 91,-169 91,-169 481.8468,-169 481.8468,-169"/>
<polygon fill="#000000" stroke="#000000" points="481.8468,-172.5001 491.8468,-169 481.8467,-165.5001 481.8468,-172.5001"/>
</g>
<!-- AllIssuesPageComponent  -->
<g id="node7" class="node">
<title>AllIssuesPageComponent </title>
<polygon fill="#fb8072" stroke="#000000" points="810.1411,-252 645.8589,-252 645.8589,-216 810.1411,-216 810.1411,-252"/>
<text text-anchor="middle" x="728" y="-229.8" font-family="Times,serif" font-size="14.00" fill="#000000">AllIssuesPageComponent </text>
</g>
<!-- PagesModule&#45;&gt;AllIssuesPageComponent  -->
<g id="edge7" class="edge">
<title>PagesModule&#45;&gt;AllIssuesPageComponent </title>
<path fill="none" stroke="#000000" stroke-dasharray="5,2" d="M584.3044,-178C627.598,-178 685.625,-178 685.625,-178 685.625,-178 685.625,-205.973 685.625,-205.973"/>
<polygon fill="#000000" stroke="#000000" points="682.1251,-205.973 685.625,-215.973 689.1251,-205.973 682.1251,-205.973"/>
</g>
<!-- ReportIssuePageComponent  -->
<g id="node8" class="node">
<title>ReportIssuePageComponent </title>
<polygon fill="#fb8072" stroke="#000000" points="627.411,-252 448.589,-252 448.589,-216 627.411,-216 627.411,-252"/>
<text text-anchor="middle" x="538" y="-229.8" font-family="Times,serif" font-size="14.00" fill="#000000">ReportIssuePageComponent </text>
</g>
<!-- PagesModule&#45;&gt;ReportIssuePageComponent  -->
<g id="edge8" class="edge">
<title>PagesModule&#45;&gt;ReportIssuePageComponent </title>
<path fill="none" stroke="#000000" stroke-dasharray="5,2" d="M538,-187.1061C538,-187.1061 538,-205.991 538,-205.991"/>
<polygon fill="#000000" stroke="#000000" points="534.5001,-205.9909 538,-215.991 541.5001,-205.991 534.5001,-205.9909"/>
</g>
<!-- UserPageComponent  -->
<g id="node9" class="node">
<title>UserPageComponent </title>
<polygon fill="#fb8072" stroke="#000000" points="430.4714,-252 291.5286,-252 291.5286,-216 430.4714,-216 430.4714,-252"/>
<text text-anchor="middle" x="361" y="-229.8" font-family="Times,serif" font-size="14.00" fill="#000000">UserPageComponent </text>
</g>
<!-- PagesModule&#45;&gt;UserPageComponent  -->
<g id="edge9" class="edge">
<title>PagesModule&#45;&gt;UserPageComponent </title>
<path fill="none" stroke="#000000" stroke-dasharray="5,2" d="M491.623,-178C451.4969,-178 399.8774,-178 399.8774,-178 399.8774,-178 399.8774,-205.973 399.8774,-205.973"/>
<polygon fill="#000000" stroke="#000000" points="396.3775,-205.973 399.8774,-215.973 403.3775,-205.973 396.3775,-205.973"/>
</g>
</g>
</svg>
