<?xml version="1.0" encoding="UTF-8" standalone="no"?>
<!DOCTYPE svg PUBLIC "-//W3C//DTD SVG 1.1//EN"
 "http://www.w3.org/Graphics/SVG/1.1/DTD/svg11.dtd">
<!-- Generated by graphviz version 2.40.1 (20161225.0304)
 -->
<!-- Title: dependencies Pages: 1 -->
<svg width="2071pt" height="515pt"
 viewBox="0.00 0.00 2071.00 515.00" xmlns="http://www.w3.org/2000/svg" xmlns:xlink="http://www.w3.org/1999/xlink">
<g id="graph0" class="graph" transform="scale(1 1) rotate(0) translate(4 511)">
<title>dependencies</title>
<polygon fill="#ffffff" stroke="transparent" points="-4,4 -4,-511 2067,-511 2067,4 -4,4"/>
<text text-anchor="start" x="1010.5091" y="-42.4" font-family="sans-serif" font-weight="bold" font-size="14.00" fill="#000000">Legend</text>
<polygon fill="#ffffb3" stroke="transparent" points="797.5,-10 797.5,-30 817.5,-30 817.5,-10 797.5,-10"/>
<text text-anchor="start" x="821.129" y="-15.4" font-family="sans-serif" font-size="14.00" fill="#000000"> &#160;Declarations</text>
<polygon fill="#8dd3c7" stroke="transparent" points="910.5,-10 910.5,-30 930.5,-30 930.5,-10 910.5,-10"/>
<text text-anchor="start" x="934.2251" y="-15.4" font-family="sans-serif" font-size="14.00" fill="#000000"> &#160;Module</text>
<polygon fill="#80b1d3" stroke="transparent" points="996.5,-10 996.5,-30 1016.5,-30 1016.5,-10 996.5,-10"/>
<text text-anchor="start" x="1020.2812" y="-15.4" font-family="sans-serif" font-size="14.00" fill="#000000"> &#160;Bootstrap</text>
<polygon fill="#fdb462" stroke="transparent" points="1093.5,-10 1093.5,-30 1113.5,-30 1113.5,-10 1093.5,-10"/>
<text text-anchor="start" x="1117.1732" y="-15.4" font-family="sans-serif" font-size="14.00" fill="#000000"> &#160;Providers</text>
<polygon fill="#fb8072" stroke="transparent" points="1189.5,-10 1189.5,-30 1209.5,-30 1209.5,-10 1189.5,-10"/>
<text text-anchor="start" x="1213.2258" y="-15.4" font-family="sans-serif" font-size="14.00" fill="#000000"> &#160;Exports</text>
<g id="clust1" class="cluster">
<title>cluster_AppModule</title>
<polygon fill="none" stroke="#000000" stroke-dasharray="1,5" points="592,-222 592,-499 1308,-499 1308,-222 592,-222"/>
</g>
<g id="clust2" class="cluster">
<title>cluster_AppModule_declarations</title>
<polygon fill="none" stroke="#000000" points="902,-295 902,-347 1024,-347 1024,-295 902,-295"/>
</g>
<g id="clust4" class="cluster">
<title>cluster_AppModule_imports</title>
<polygon fill="none" stroke="#000000" points="1032,-230 1032,-347 1300,-347 1300,-230 1032,-230"/>
</g>
<g id="clust6" class="cluster">
<title>cluster_AppModule_bootstrap</title>
<polygon fill="none" stroke="#000000" points="829,-439 829,-491 953,-491 953,-439 829,-439"/>
</g>
<g id="clust7" class="cluster">
<title>cluster_AppModule_providers</title>
<polygon fill="none" stroke="#000000" points="600,-295 600,-347 860,-347 860,-295 600,-295"/>
</g>
<g id="clust8" class="cluster">
<title>cluster_AppRoutingModule</title>
<polygon fill="none" stroke="#000000" stroke-dasharray="1,5" points="1042,-146 1042,-214 1166,-214 1166,-146 1042,-146"/>
</g>
<g id="clust10" class="cluster">
<title>cluster_AppRoutingModule_imports</title>
<polygon fill="none" stroke="#000000" points="1050,-154 1050,-206 1158,-206 1158,-154 1050,-154"/>
</g>
<g id="clust14" class="cluster">
<title>cluster_NavigationModule</title>
<polygon fill="none" stroke="#000000" stroke-dasharray="1,5" points="1316,-363 1316,-431 1915,-431 1915,-363 1316,-363"/>
</g>
<g id="clust15" class="cluster">
<title>cluster_NavigationModule_declarations</title>
<polygon fill="none" stroke="#000000" points="1623,-371 1623,-423 1907,-423 1907,-371 1623,-371"/>
</g>
<g id="clust19" class="cluster">
<title>cluster_NavigationModule_exports</title>
<polygon fill="none" stroke="#000000" points="1324,-371 1324,-423 1615,-423 1615,-371 1324,-371"/>
</g>
<g id="clust22" class="cluster">
<title>cluster_PagesModule</title>
<polygon fill="none" stroke="#000000" stroke-dasharray="1,5" points="8,-70 8,-138 2055,-138 2055,-70 8,-70"/>
</g>
<g id="clust23" class="cluster">
<title>cluster_PagesModule_declarations</title>
<polygon fill="none" stroke="#000000" points="687,-78 687,-130 2047,-130 2047,-78 687,-78"/>
</g>
<g id="clust33" class="cluster">
<title>cluster_PagesModule_exports</title>
<polygon fill="none" stroke="#000000" points="16,-78 16,-130 679,-130 679,-78 16,-78"/>
</g>
<g id="clust36" class="cluster">
<title>cluster_SecurityModule</title>
<polygon fill="none" stroke="#000000" stroke-dasharray="1,5" points="1316,-287 1316,-355 1660,-355 1660,-287 1316,-287"/>
</g>
<g id="clust37" class="cluster">
<title>cluster_SecurityModule_declarations</title>
<polygon fill="none" stroke="#000000" points="1494,-295 1494,-347 1652,-347 1652,-295 1494,-295"/>
</g>
<g id="clust40" class="cluster">
<title>cluster_SecurityModule_exports</title>
<polygon fill="none" stroke="#000000" points="1324,-295 1324,-347 1486,-347 1486,-295 1324,-295"/>
</g>
<!-- AppComponent -->
<g id="node1" class="node">
<title>AppComponent</title>
<polygon fill="#ffffb3" stroke="#000000" points="1015.9399,-339 910.0601,-339 910.0601,-303 1015.9399,-303 1015.9399,-339"/>
<text text-anchor="middle" x="963" y="-316.8" font-family="Times,serif" font-size="14.00" fill="#000000">AppComponent</text>
</g>
<!-- AppModule -->
<g id="node2" class="node">
<title>AppModule</title>
<polygon fill="#8dd3c7" stroke="#000000" points="932.6571,-415 929.6571,-419 908.6571,-419 905.6571,-415 849.3429,-415 849.3429,-379 932.6571,-379 932.6571,-415"/>
<text text-anchor="middle" x="891" y="-392.8" font-family="Times,serif" font-size="14.00" fill="#000000">AppModule</text>
</g>
<!-- AppComponent&#45;&gt;AppModule -->
<g id="edge1" class="edge">
<title>AppComponent&#45;&gt;AppModule</title>
<path fill="none" stroke="#000000" d="M921.5544,-339.0109C921.5544,-339.0109 921.5544,-368.855 921.5544,-368.855"/>
<polygon fill="#000000" stroke="#000000" points="918.0544,-368.8549 921.5544,-378.855 925.0544,-368.855 918.0544,-368.8549"/>
</g>
<!-- AppComponent  -->
<g id="node6" class="node">
<title>AppComponent </title>
<polygon fill="#80b1d3" stroke="#000000" points="945.439,-483 836.561,-483 836.561,-447 945.439,-447 945.439,-483"/>
<text text-anchor="middle" x="891" y="-460.8" font-family="Times,serif" font-size="14.00" fill="#000000">AppComponent </text>
</g>
<!-- AppModule&#45;&gt;AppComponent  -->
<g id="edge5" class="edge">
<title>AppModule&#45;&gt;AppComponent </title>
<path fill="none" stroke="#000000" stroke-dasharray="1,5" d="M891,-415.2228C891,-415.2228 891,-436.7269 891,-436.7269"/>
<polygon fill="#000000" stroke="#000000" points="887.5001,-436.7269 891,-446.7269 894.5001,-436.727 887.5001,-436.7269"/>
</g>
<!-- AppRoutingModule -->
<g id="node3" class="node">
<title>AppRoutingModule</title>
<polygon fill="#8dd3c7" stroke="#000000" points="1168.2744,-274 1165.2744,-278 1144.2744,-278 1141.2744,-274 1039.7256,-274 1039.7256,-238 1168.2744,-238 1168.2744,-274"/>
<text text-anchor="middle" x="1104" y="-251.8" font-family="Times,serif" font-size="14.00" fill="#000000">AppRoutingModule</text>
</g>
<!-- AppRoutingModule&#45;&gt;AppModule -->
<g id="edge2" class="edge">
<title>AppRoutingModule&#45;&gt;AppModule</title>
<path fill="none" stroke="#000000" d="M1039.4326,-256C970.506,-256 871.0963,-256 871.0963,-256 871.0963,-256 871.0963,-368.8554 871.0963,-368.8554"/>
<polygon fill="#000000" stroke="#000000" points="867.5964,-368.8553 871.0963,-378.8554 874.5964,-368.8554 867.5964,-368.8553"/>
</g>
<!-- NavigationModule -->
<g id="node4" class="node">
<title>NavigationModule</title>
<polygon fill="#8dd3c7" stroke="#000000" points="1291.7576,-339 1288.7576,-343 1267.7576,-343 1264.7576,-339 1170.2424,-339 1170.2424,-303 1291.7576,-303 1291.7576,-339"/>
<text text-anchor="middle" x="1231" y="-316.8" font-family="Times,serif" font-size="14.00" fill="#000000">NavigationModule</text>
</g>
<!-- AppRoutingModule&#45;&gt;NavigationModule -->
<g id="edge10" class="edge">
<title>AppRoutingModule&#45;&gt;NavigationModule</title>
<path fill="none" stroke="#000000" d="M1168.3343,-256C1174.2108,-256 1178.0098,-256 1178.0098,-256 1178.0098,-256 1178.0098,-292.8939 1178.0098,-292.8939"/>
<polygon fill="#000000" stroke="#000000" points="1174.5099,-292.8938 1178.0098,-302.8939 1181.5099,-292.8939 1174.5099,-292.8938"/>
</g>
<!-- NavigationModule&#45;&gt;AppModule -->
<g id="edge3" class="edge">
<title>NavigationModule&#45;&gt;AppModule</title>
<path fill="none" stroke="#000000" d="M1231,-339.0267C1231,-359.7672 1231,-391 1231,-391 1231,-391 942.6907,-391 942.6907,-391"/>
<polygon fill="#000000" stroke="#000000" points="942.6907,-387.5001 932.6907,-391 942.6906,-394.5001 942.6907,-387.5001"/>
</g>
<!-- SidebarComponent  -->
<g id="node11" class="node">
<title>SidebarComponent </title>
<polygon fill="#fb8072" stroke="#000000" points="1459.596,-415 1332.404,-415 1332.404,-379 1459.596,-379 1459.596,-415"/>
<text text-anchor="middle" x="1396" y="-392.8" font-family="Times,serif" font-size="14.00" fill="#000000">SidebarComponent </text>
</g>
<!-- NavigationModule&#45;&gt;SidebarComponent  -->
<g id="edge11" class="edge">
<title>NavigationModule&#45;&gt;SidebarComponent </title>
<path fill="none" stroke="#000000" stroke-dasharray="5,2" d="M1271.5858,-339.1985C1271.5858,-363.3563 1271.5858,-403 1271.5858,-403 1271.5858,-403 1322.335,-403 1322.335,-403"/>
<polygon fill="#000000" stroke="#000000" points="1322.3351,-406.5001 1332.335,-403 1322.335,-399.5001 1322.3351,-406.5001"/>
</g>
<!-- ToolbarComponent  -->
<g id="node12" class="node">
<title>ToolbarComponent </title>
<polygon fill="#fb8072" stroke="#000000" points="1606.6509,-415 1477.3491,-415 1477.3491,-379 1606.6509,-379 1606.6509,-415"/>
<text text-anchor="middle" x="1542" y="-392.8" font-family="Times,serif" font-size="14.00" fill="#000000">ToolbarComponent </text>
</g>
<!-- NavigationModule&#45;&gt;ToolbarComponent  -->
<g id="edge12" class="edge">
<title>NavigationModule&#45;&gt;ToolbarComponent </title>
<path fill="none" stroke="#000000" stroke-dasharray="5,2" d="M1251.2929,-339.1467C1251.2929,-352.7395 1251.2929,-369 1251.2929,-369 1251.2929,-369 1489.875,-369 1489.875,-369 1489.875,-369 1489.875,-369.9793 1489.875,-369.9793"/>
<polygon fill="#000000" stroke="#000000" points="1486.3751,-368.793 1489.875,-378.793 1493.3751,-368.7931 1486.3751,-368.793"/>
</g>
<!-- SecurityModule -->
<g id="node5" class="node">
<title>SecurityModule</title>
<polygon fill="#8dd3c7" stroke="#000000" points="1292.2036,-274 1289.2036,-278 1268.2036,-278 1265.2036,-274 1185.7964,-274 1185.7964,-238 1292.2036,-238 1292.2036,-274"/>
<text text-anchor="middle" x="1239" y="-251.8" font-family="Times,serif" font-size="14.00" fill="#000000">SecurityModule</text>
</g>
<!-- SecurityModule&#45;&gt;AppModule -->
<g id="edge4" class="edge">
<title>SecurityModule&#45;&gt;AppModule</title>
<path fill="none" stroke="#000000" d="M1238.8885,-274.0449C1238.8885,-281.749 1238.8885,-289 1238.8885,-289 1238.8885,-289 890.6884,-289 890.6884,-289 890.6884,-289 890.6884,-368.6793 890.6884,-368.6793"/>
<polygon fill="#000000" stroke="#000000" points="887.1885,-368.6792 890.6884,-378.6793 894.1885,-368.6793 887.1885,-368.6792"/>
</g>
<!-- LoginPageComponent  -->
<g id="node26" class="node">
<title>LoginPageComponent </title>
<polygon fill="#fb8072" stroke="#000000" points="1477.9882,-339 1332.0118,-339 1332.0118,-303 1477.9882,-303 1477.9882,-339"/>
<text text-anchor="middle" x="1405" y="-316.8" font-family="Times,serif" font-size="14.00" fill="#000000">LoginPageComponent </text>
</g>
<!-- SecurityModule&#45;&gt;LoginPageComponent  -->
<g id="edge27" class="edge">
<title>SecurityModule&#45;&gt;LoginPageComponent </title>
<path fill="none" stroke="#000000" stroke-dasharray="5,2" d="M1292.1457,-262C1324.3907,-262 1359.3684,-262 1359.3684,-262 1359.3684,-262 1359.3684,-292.9775 1359.3684,-292.9775"/>
<polygon fill="#000000" stroke="#000000" points="1355.8684,-292.9774 1359.3684,-302.9775 1362.8684,-292.9775 1355.8684,-292.9774"/>
</g>
<!-- ApiTokenInterceptorService -->
<g id="node7" class="node">
<title>ApiTokenInterceptorService</title>
<ellipse fill="#fdb462" stroke="#000000" cx="730" cy="-321" rx="121.5085" ry="18"/>
<text text-anchor="middle" x="730" y="-316.8" font-family="Times,serif" font-size="14.00" fill="#000000">ApiTokenInterceptorService</text>
</g>
<!-- ApiTokenInterceptorService&#45;&gt;AppModule -->
<g id="edge6" class="edge">
<title>ApiTokenInterceptorService&#45;&gt;AppModule</title>
<path fill="none" stroke="#000000" d="M842.8512,-327.7445C842.8512,-346.3445 842.8512,-397 842.8512,-397 842.8512,-397 843.4806,-397 843.4806,-397"/>
<polygon fill="#000000" stroke="#000000" points="839.1458,-400.5002 849.1458,-397 839.1457,-393.5002 839.1458,-400.5002"/>
</g>
<!-- PagesModule -->
<g id="node8" class="node">
<title>PagesModule</title>
<polygon fill="#8dd3c7" stroke="#000000" points="1150.2064,-198 1147.2064,-202 1126.2064,-202 1123.2064,-198 1057.7936,-198 1057.7936,-162 1150.2064,-162 1150.2064,-198"/>
<text text-anchor="middle" x="1104" y="-175.8" font-family="Times,serif" font-size="14.00" fill="#000000">PagesModule</text>
</g>
<!-- PagesModule&#45;&gt;AppRoutingModule -->
<g id="edge7" class="edge">
<title>PagesModule&#45;&gt;AppRoutingModule</title>
<path fill="none" stroke="#000000" d="M1104,-198.0109C1104,-198.0109 1104,-227.855 1104,-227.855"/>
<polygon fill="#000000" stroke="#000000" points="1100.5001,-227.8549 1104,-237.855 1107.5001,-227.855 1100.5001,-227.8549"/>
</g>
<!-- AllIssuesPageComponent  -->
<g id="node21" class="node">
<title>AllIssuesPageComponent </title>
<polygon fill="#fb8072" stroke="#000000" points="671.1411,-122 506.8589,-122 506.8589,-86 671.1411,-86 671.1411,-122"/>
<text text-anchor="middle" x="589" y="-99.8" font-family="Times,serif" font-size="14.00" fill="#000000">AllIssuesPageComponent </text>
</g>
<!-- PagesModule&#45;&gt;AllIssuesPageComponent  -->
<g id="edge22" class="edge">
<title>PagesModule&#45;&gt;AllIssuesPageComponent </title>
<path fill="none" stroke="#000000" stroke-dasharray="5,2" d="M1057.792,-178C940.3738,-178 639.7831,-178 639.7831,-178 639.7831,-178 639.7831,-132.2921 639.7831,-132.2921"/>
<polygon fill="#000000" stroke="#000000" points="643.2832,-132.2921 639.7831,-122.2921 636.2832,-132.2922 643.2832,-132.2921"/>
</g>
<!-- CardComponent  -->
<g id="node22" class="node">
<title>CardComponent </title>
<polygon fill="#fb8072" stroke="#000000" points="489.0442,-122 376.9558,-122 376.9558,-86 489.0442,-86 489.0442,-122"/>
<text text-anchor="middle" x="433" y="-99.8" font-family="Times,serif" font-size="14.00" fill="#000000">CardComponent </text>
</g>
<!-- PagesModule&#45;&gt;CardComponent  -->
<g id="edge23" class="edge">
<title>PagesModule&#45;&gt;CardComponent </title>
<path fill="none" stroke="#000000" stroke-dasharray="5,2" d="M1057.8795,-183C906.2815,-183 433,-183 433,-183 433,-183 433,-132.3228 433,-132.3228"/>
<polygon fill="#000000" stroke="#000000" points="436.5001,-132.3227 433,-122.3228 429.5001,-132.3228 436.5001,-132.3227"/>
</g>
<!-- ReportIssuePageComponent  -->
<g id="node23" class="node">
<title>ReportIssuePageComponent </title>
<polygon fill="#fb8072" stroke="#000000" points="359.411,-122 180.589,-122 180.589,-86 359.411,-86 359.411,-122"/>
<text text-anchor="middle" x="270" y="-99.8" font-family="Times,serif" font-size="14.00" fill="#000000">ReportIssuePageComponent </text>
</g>
<!-- PagesModule&#45;&gt;ReportIssuePageComponent  -->
<g id="edge24" class="edge">
<title>PagesModule&#45;&gt;ReportIssuePageComponent </title>
<path fill="none" stroke="#000000" stroke-dasharray="5,2" d="M1057.6734,-188C882.4355,-188 270,-188 270,-188 270,-188 270,-132.2267 270,-132.2267"/>
<polygon fill="#000000" stroke="#000000" points="273.5001,-132.2267 270,-122.2267 266.5001,-132.2268 273.5001,-132.2267"/>
</g>
<!-- UserPageComponent  -->
<g id="node24" class="node">
<title>UserPageComponent </title>
<polygon fill="#fb8072" stroke="#000000" points="162.4714,-122 23.5286,-122 23.5286,-86 162.4714,-86 162.4714,-122"/>
<text text-anchor="middle" x="93" y="-99.8" font-family="Times,serif" font-size="14.00" fill="#000000">UserPageComponent </text>
</g>
<!-- PagesModule&#45;&gt;UserPageComponent  -->
<g id="edge25" class="edge">
<title>PagesModule&#45;&gt;UserPageComponent </title>
<path fill="none" stroke="#000000" stroke-dasharray="5,2" d="M1057.5992,-193C859.2914,-193 93,-193 93,-193 93,-193 93,-132.0105 93,-132.0105"/>
<polygon fill="#000000" stroke="#000000" points="96.5001,-132.0104 93,-122.0105 89.5001,-132.0105 96.5001,-132.0104"/>
</g>
<!-- SidebarComponent -->
<g id="node9" class="node">
<title>SidebarComponent</title>
<polygon fill="#ffffb3" stroke="#000000" points="1755.0954,-415 1630.9046,-415 1630.9046,-379 1755.0954,-379 1755.0954,-415"/>
<text text-anchor="middle" x="1693" y="-392.8" font-family="Times,serif" font-size="14.00" fill="#000000">SidebarComponent</text>
</g>
<!-- SidebarComponent&#45;&gt;NavigationModule -->
<g id="edge8" class="edge">
<title>SidebarComponent&#45;&gt;NavigationModule</title>
<path fill="none" stroke="#000000" d="M1637.473,-378.8903C1637.473,-369.103 1637.473,-359 1637.473,-359 1637.473,-359 1190.4142,-359 1190.4142,-359 1190.4142,-359 1190.4142,-349.1097 1190.4142,-349.1097"/>
<polygon fill="#000000" stroke="#000000" points="1193.9143,-349.1096 1190.4142,-339.1097 1186.9143,-349.1097 1193.9143,-349.1096"/>
</g>
<!-- ToolbarComponent -->
<g id="node10" class="node">
<title>ToolbarComponent</title>
<polygon fill="#ffffb3" stroke="#000000" points="1898.6513,-415 1773.3487,-415 1773.3487,-379 1898.6513,-379 1898.6513,-415"/>
<text text-anchor="middle" x="1836" y="-392.8" font-family="Times,serif" font-size="14.00" fill="#000000">ToolbarComponent</text>
</g>
<!-- ToolbarComponent&#45;&gt;NavigationModule -->
<g id="edge9" class="edge">
<title>ToolbarComponent&#45;&gt;NavigationModule</title>
<path fill="none" stroke="#000000" d="M1823.2476,-378.8533C1823.2476,-365.2605 1823.2476,-349 1823.2476,-349 1823.2476,-349 1210.7071,-349 1210.7071,-349 1210.7071,-349 1210.7071,-348.0207 1210.7071,-348.0207"/>
<polygon fill="#000000" stroke="#000000" points="1214.2072,-349.2069 1210.7071,-339.207 1207.2072,-349.207 1214.2072,-349.2069"/>
</g>
<!-- AdminPageComponent -->
<g id="node13" class="node">
<title>AdminPageComponent</title>
<polygon fill="#ffffb3" stroke="#000000" points="2038.9326,-122 1891.0674,-122 1891.0674,-86 2038.9326,-86 2038.9326,-122"/>
<text text-anchor="middle" x="1965" y="-99.8" font-family="Times,serif" font-size="14.00" fill="#000000">AdminPageComponent</text>
</g>
<!-- AdminPageComponent&#45;&gt;PagesModule -->
<g id="edge13" class="edge">
<title>AdminPageComponent&#45;&gt;PagesModule</title>
<path fill="none" stroke="#000000" d="M1896.3116,-122.0105C1896.3116,-148.0165 1896.3116,-193 1896.3116,-193 1896.3116,-193 1160.3133,-193 1160.3133,-193"/>
<polygon fill="#000000" stroke="#000000" points="1160.3133,-189.5001 1150.3133,-193 1160.3133,-196.5001 1160.3133,-189.5001"/>
</g>
<!-- AdminPageComponent&#45;&gt;PagesModule -->
<g id="edge14" class="edge">
<title>AdminPageComponent&#45;&gt;PagesModule</title>
<path fill="none" stroke="#000000" d="M1893.7978,-122.2267C1893.7978,-146.9318 1893.7978,-188 1893.7978,-188 1893.7978,-188 1160.1664,-188 1160.1664,-188"/>
<polygon fill="#000000" stroke="#000000" points="1160.1664,-184.5001 1150.1664,-188 1160.1663,-191.5001 1160.1664,-184.5001"/>
</g>
<!-- AllIssuesPageComponent -->
<g id="node14" class="node">
<title>AllIssuesPageComponent</title>
<polygon fill="#ffffb3" stroke="#000000" points="1873.1414,-122 1712.8586,-122 1712.8586,-86 1873.1414,-86 1873.1414,-122"/>
<text text-anchor="middle" x="1793" y="-99.8" font-family="Times,serif" font-size="14.00" fill="#000000">AllIssuesPageComponent</text>
</g>
<!-- AllIssuesPageComponent&#45;&gt;PagesModule -->
<g id="edge15" class="edge">
<title>AllIssuesPageComponent&#45;&gt;PagesModule</title>
<path fill="none" stroke="#000000" d="M1733.8636,-122.3228C1733.8636,-145.6602 1733.8636,-183 1733.8636,-183 1733.8636,-183 1160.3154,-183 1160.3154,-183"/>
<polygon fill="#000000" stroke="#000000" points="1160.3154,-179.5001 1150.3154,-183 1160.3153,-186.5001 1160.3154,-179.5001"/>
</g>
<!-- CardComponent -->
<g id="node15" class="node">
<title>CardComponent</title>
<polygon fill="#ffffb3" stroke="#000000" points="1694.0452,-122 1585.9548,-122 1585.9548,-86 1694.0452,-86 1694.0452,-122"/>
<text text-anchor="middle" x="1640" y="-99.8" font-family="Times,serif" font-size="14.00" fill="#000000">CardComponent</text>
</g>
<!-- CardComponent&#45;&gt;PagesModule -->
<g id="edge16" class="edge">
<title>CardComponent&#45;&gt;PagesModule</title>
<path fill="none" stroke="#000000" d="M1614.8608,-122.2921C1614.8608,-144.2057 1614.8608,-178 1614.8608,-178 1614.8608,-178 1160.2365,-178 1160.2365,-178"/>
<polygon fill="#000000" stroke="#000000" points="1160.2365,-174.5001 1150.2365,-178 1160.2365,-181.5001 1160.2365,-174.5001"/>
</g>
<!-- CommentsListComponent -->
<g id="node16" class="node">
<title>CommentsListComponent</title>
<polygon fill="#ffffb3" stroke="#000000" points="1567.7785,-122 1404.2215,-122 1404.2215,-86 1567.7785,-86 1567.7785,-122"/>
<text text-anchor="middle" x="1486" y="-99.8" font-family="Times,serif" font-size="14.00" fill="#000000">CommentsListComponent</text>
</g>
<!-- CommentsListComponent&#45;&gt;PagesModule -->
<g id="edge17" class="edge">
<title>CommentsListComponent&#45;&gt;PagesModule</title>
<path fill="none" stroke="#000000" d="M1440.9273,-122.1289C1440.9273,-142.5724 1440.9273,-173 1440.9273,-173 1440.9273,-173 1160.1418,-173 1160.1418,-173"/>
<polygon fill="#000000" stroke="#000000" points="1160.1419,-169.5001 1150.1418,-173 1160.1418,-176.5001 1160.1419,-169.5001"/>
</g>
<!-- IssueDetailsPageComponent -->
<g id="node17" class="node">
<title>IssueDetailsPageComponent</title>
<polygon fill="#ffffb3" stroke="#000000" points="1386.4608,-122 1209.5392,-122 1209.5392,-86 1386.4608,-86 1386.4608,-122"/>
<text text-anchor="middle" x="1298" y="-99.8" font-family="Times,serif" font-size="14.00" fill="#000000">IssueDetailsPageComponent</text>
</g>
<!-- IssueDetailsPageComponent&#45;&gt;PagesModule -->
<g id="edge18" class="edge">
<title>IssueDetailsPageComponent&#45;&gt;PagesModule</title>
<path fill="none" stroke="#000000" d="M1250.8106,-122.1686C1250.8106,-141.0898 1250.8106,-168 1250.8106,-168 1250.8106,-168 1160.4518,-168 1160.4518,-168"/>
<polygon fill="#000000" stroke="#000000" points="1160.4518,-164.5001 1150.4518,-168 1160.4518,-171.5001 1160.4518,-164.5001"/>
</g>
<!-- ReportIssuePageComponent -->
<g id="node18" class="node">
<title>ReportIssuePageComponent</title>
<polygon fill="#ffffb3" stroke="#000000" points="1191.9115,-122 1016.0885,-122 1016.0885,-86 1191.9115,-86 1191.9115,-122"/>
<text text-anchor="middle" x="1104" y="-99.8" font-family="Times,serif" font-size="14.00" fill="#000000">ReportIssuePageComponent</text>
</g>
<!-- ReportIssuePageComponent&#45;&gt;PagesModule -->
<g id="edge19" class="edge">
<title>ReportIssuePageComponent&#45;&gt;PagesModule</title>
<path fill="none" stroke="#000000" d="M1104,-122.0109C1104,-122.0109 1104,-151.855 1104,-151.855"/>
<polygon fill="#000000" stroke="#000000" points="1100.5001,-151.8549 1104,-161.855 1107.5001,-151.855 1100.5001,-151.8549"/>
</g>
<!-- SignUpPageComponent -->
<g id="node19" class="node">
<title>SignUpPageComponent</title>
<polygon fill="#ffffb3" stroke="#000000" points="998.8243,-122 847.1757,-122 847.1757,-86 998.8243,-86 998.8243,-122"/>
<text text-anchor="middle" x="923" y="-99.8" font-family="Times,serif" font-size="14.00" fill="#000000">SignUpPageComponent</text>
</g>
<!-- SignUpPageComponent&#45;&gt;PagesModule -->
<g id="edge20" class="edge">
<title>SignUpPageComponent&#45;&gt;PagesModule</title>
<path fill="none" stroke="#000000" d="M954.4713,-122.1686C954.4713,-141.0898 954.4713,-168 954.4713,-168 954.4713,-168 1047.5078,-168 1047.5078,-168"/>
<polygon fill="#000000" stroke="#000000" points="1047.5079,-171.5001 1057.5078,-168 1047.5078,-164.5001 1047.5079,-171.5001"/>
</g>
<!-- UserPageComponent -->
<g id="node20" class="node">
<title>UserPageComponent</title>
<polygon fill="#ffffb3" stroke="#000000" points="829.4706,-122 694.5294,-122 694.5294,-86 829.4706,-86 829.4706,-122"/>
<text text-anchor="middle" x="762" y="-99.8" font-family="Times,serif" font-size="14.00" fill="#000000">UserPageComponent</text>
</g>
<!-- UserPageComponent&#45;&gt;PagesModule -->
<g id="edge21" class="edge">
<title>UserPageComponent&#45;&gt;PagesModule</title>
<path fill="none" stroke="#000000" d="M762,-122.1289C762,-142.5724 762,-173 762,-173 762,-173 1047.8764,-173 1047.8764,-173"/>
<polygon fill="#000000" stroke="#000000" points="1047.8764,-176.5001 1057.8764,-173 1047.8763,-169.5001 1047.8764,-176.5001"/>
</g>
<!-- LoginPageComponent -->
<g id="node25" class="node">
<title>LoginPageComponent</title>
<polygon fill="#ffffb3" stroke="#000000" points="1643.9874,-339 1502.0126,-339 1502.0126,-303 1643.9874,-303 1643.9874,-339"/>
<text text-anchor="middle" x="1573" y="-316.8" font-family="Times,serif" font-size="14.00" fill="#000000">LoginPageComponent</text>
</g>
<!-- LoginPageComponent&#45;&gt;SecurityModule -->
<g id="edge26" class="edge">
<title>LoginPageComponent&#45;&gt;SecurityModule</title>
<path fill="none" stroke="#000000" d="M1534.9478,-302.7157C1534.9478,-281.6789 1534.9478,-250 1534.9478,-250 1534.9478,-250 1302.2513,-250 1302.2513,-250"/>
<polygon fill="#000000" stroke="#000000" points="1302.2514,-246.5001 1292.2513,-250 1302.2513,-253.5001 1302.2514,-246.5001"/>
</g>
</g>
</svg>
