<?xml version="1.0" encoding="UTF-8" standalone="no"?>
<!DOCTYPE svg PUBLIC "-//W3C//DTD SVG 1.1//EN"
 "http://www.w3.org/Graphics/SVG/1.1/DTD/svg11.dtd">
<!-- Generated by graphviz version 2.40.1 (20161225.0304)
 -->
<!-- Title: dependencies Pages: 1 -->
<svg width="1674pt" height="515pt"
 viewBox="0.00 0.00 1674.00 515.00" xmlns="http://www.w3.org/2000/svg" xmlns:xlink="http://www.w3.org/1999/xlink">
<g id="graph0" class="graph" transform="scale(1 1) rotate(0) translate(4 511)">
<title>dependencies</title>
<polygon fill="#ffffff" stroke="transparent" points="-4,4 -4,-511 1670,-511 1670,4 -4,4"/>
<text text-anchor="start" x="812.0091" y="-42.4" font-family="sans-serif" font-weight="bold" font-size="14.00" fill="#000000">Legend</text>
<polygon fill="#ffffb3" stroke="transparent" points="599,-10 599,-30 619,-30 619,-10 599,-10"/>
<text text-anchor="start" x="622.629" y="-15.4" font-family="sans-serif" font-size="14.00" fill="#000000"> &#160;Declarations</text>
<polygon fill="#8dd3c7" stroke="transparent" points="712,-10 712,-30 732,-30 732,-10 712,-10"/>
<text text-anchor="start" x="735.7251" y="-15.4" font-family="sans-serif" font-size="14.00" fill="#000000"> &#160;Module</text>
<polygon fill="#80b1d3" stroke="transparent" points="798,-10 798,-30 818,-30 818,-10 798,-10"/>
<text text-anchor="start" x="821.7812" y="-15.4" font-family="sans-serif" font-size="14.00" fill="#000000"> &#160;Bootstrap</text>
<polygon fill="#fdb462" stroke="transparent" points="895,-10 895,-30 915,-30 915,-10 895,-10"/>
<text text-anchor="start" x="918.6732" y="-15.4" font-family="sans-serif" font-size="14.00" fill="#000000"> &#160;Providers</text>
<polygon fill="#fb8072" stroke="transparent" points="991,-10 991,-30 1011,-30 1011,-10 991,-10"/>
<text text-anchor="start" x="1014.7258" y="-15.4" font-family="sans-serif" font-size="14.00" fill="#000000"> &#160;Exports</text>
<g id="clust1" class="cluster">
<title>cluster_AppModule</title>
<polygon fill="none" stroke="#000000" stroke-dasharray="1,5" points="335,-222 335,-499 1051,-499 1051,-222 335,-222"/>
</g>
<g id="clust2" class="cluster">
<title>cluster_AppModule_declarations</title>
<polygon fill="none" stroke="#000000" points="645,-295 645,-347 767,-347 767,-295 645,-295"/>
</g>
<g id="clust4" class="cluster">
<title>cluster_AppModule_imports</title>
<polygon fill="none" stroke="#000000" points="775,-230 775,-347 1043,-347 1043,-230 775,-230"/>
</g>
<g id="clust6" class="cluster">
<title>cluster_AppModule_bootstrap</title>
<polygon fill="none" stroke="#000000" points="572,-439 572,-491 696,-491 696,-439 572,-439"/>
</g>
<g id="clust7" class="cluster">
<title>cluster_AppModule_providers</title>
<polygon fill="none" stroke="#000000" points="343,-295 343,-347 603,-347 603,-295 343,-295"/>
</g>
<g id="clust8" class="cluster">
<title>cluster_AppRoutingModule</title>
<polygon fill="none" stroke="#000000" stroke-dasharray="1,5" points="785,-146 785,-214 909,-214 909,-146 785,-146"/>
</g>
<g id="clust10" class="cluster">
<title>cluster_AppRoutingModule_imports</title>
<polygon fill="none" stroke="#000000" points="793,-154 793,-206 901,-206 901,-154 793,-154"/>
</g>
<g id="clust14" class="cluster">
<title>cluster_NavigationModule</title>
<polygon fill="none" stroke="#000000" stroke-dasharray="1,5" points="1059,-363 1059,-431 1658,-431 1658,-363 1059,-363"/>
</g>
<g id="clust15" class="cluster">
<title>cluster_NavigationModule_declarations</title>
<polygon fill="none" stroke="#000000" points="1366,-371 1366,-423 1650,-423 1650,-371 1366,-371"/>
</g>
<g id="clust19" class="cluster">
<title>cluster_NavigationModule_exports</title>
<polygon fill="none" stroke="#000000" points="1067,-371 1067,-423 1358,-423 1358,-371 1067,-371"/>
</g>
<g id="clust22" class="cluster">
<title>cluster_PagesModule</title>
<polygon fill="none" stroke="#000000" stroke-dasharray="1,5" points="8,-70 8,-138 1448,-138 1448,-70 8,-70"/>
</g>
<g id="clust23" class="cluster">
<title>cluster_PagesModule_declarations</title>
<polygon fill="none" stroke="#000000" points="557,-78 557,-130 1440,-130 1440,-78 557,-78"/>
</g>
<g id="clust30" class="cluster">
<title>cluster_PagesModule_exports</title>
<polygon fill="none" stroke="#000000" points="16,-78 16,-130 549,-130 549,-78 16,-78"/>
</g>
<g id="clust33" class="cluster">
<title>cluster_SecurityModule</title>
<polygon fill="none" stroke="#000000" stroke-dasharray="1,5" points="1059,-287 1059,-355 1403,-355 1403,-287 1059,-287"/>
</g>
<g id="clust34" class="cluster">
<title>cluster_SecurityModule_declarations</title>
<polygon fill="none" stroke="#000000" points="1237,-295 1237,-347 1395,-347 1395,-295 1237,-295"/>
</g>
<g id="clust37" class="cluster">
<title>cluster_SecurityModule_exports</title>
<polygon fill="none" stroke="#000000" points="1067,-295 1067,-347 1229,-347 1229,-295 1067,-295"/>
</g>
<!-- AppComponent -->
<g id="node1" class="node">
<title>AppComponent</title>
<polygon fill="#ffffb3" stroke="#000000" points="758.9399,-339 653.0601,-339 653.0601,-303 758.9399,-303 758.9399,-339"/>
<text text-anchor="middle" x="706" y="-316.8" font-family="Times,serif" font-size="14.00" fill="#000000">AppComponent</text>
</g>
<!-- AppModule -->
<g id="node2" class="node">
<title>AppModule</title>
<polygon fill="#8dd3c7" stroke="#000000" points="675.6571,-415 672.6571,-419 651.6571,-419 648.6571,-415 592.3429,-415 592.3429,-379 675.6571,-379 675.6571,-415"/>
<text text-anchor="middle" x="634" y="-392.8" font-family="Times,serif" font-size="14.00" fill="#000000">AppModule</text>
</g>
<!-- AppComponent&#45;&gt;AppModule -->
<g id="edge1" class="edge">
<title>AppComponent&#45;&gt;AppModule</title>
<path fill="none" stroke="#000000" d="M664.5544,-339.0109C664.5544,-339.0109 664.5544,-368.855 664.5544,-368.855"/>
<polygon fill="#000000" stroke="#000000" points="661.0544,-368.8549 664.5544,-378.855 668.0544,-368.855 661.0544,-368.8549"/>
</g>
<!-- AppComponent  -->
<g id="node6" class="node">
<title>AppComponent </title>
<polygon fill="#80b1d3" stroke="#000000" points="688.439,-483 579.561,-483 579.561,-447 688.439,-447 688.439,-483"/>
<text text-anchor="middle" x="634" y="-460.8" font-family="Times,serif" font-size="14.00" fill="#000000">AppComponent </text>
</g>
<!-- AppModule&#45;&gt;AppComponent  -->
<g id="edge5" class="edge">
<title>AppModule&#45;&gt;AppComponent </title>
<path fill="none" stroke="#000000" stroke-dasharray="1,5" d="M634,-415.2228C634,-415.2228 634,-436.7269 634,-436.7269"/>
<polygon fill="#000000" stroke="#000000" points="630.5001,-436.7269 634,-446.7269 637.5001,-436.727 630.5001,-436.7269"/>
</g>
<!-- AppRoutingModule -->
<g id="node3" class="node">
<title>AppRoutingModule</title>
<polygon fill="#8dd3c7" stroke="#000000" points="911.2744,-274 908.2744,-278 887.2744,-278 884.2744,-274 782.7256,-274 782.7256,-238 911.2744,-238 911.2744,-274"/>
<text text-anchor="middle" x="847" y="-251.8" font-family="Times,serif" font-size="14.00" fill="#000000">AppRoutingModule</text>
</g>
<!-- AppRoutingModule&#45;&gt;AppModule -->
<g id="edge2" class="edge">
<title>AppRoutingModule&#45;&gt;AppModule</title>
<path fill="none" stroke="#000000" d="M782.4326,-256C713.506,-256 614.0963,-256 614.0963,-256 614.0963,-256 614.0963,-368.8554 614.0963,-368.8554"/>
<polygon fill="#000000" stroke="#000000" points="610.5964,-368.8553 614.0963,-378.8554 617.5964,-368.8554 610.5964,-368.8553"/>
</g>
<!-- NavigationModule -->
<g id="node4" class="node">
<title>NavigationModule</title>
<polygon fill="#8dd3c7" stroke="#000000" points="1034.7576,-339 1031.7576,-343 1010.7576,-343 1007.7576,-339 913.2424,-339 913.2424,-303 1034.7576,-303 1034.7576,-339"/>
<text text-anchor="middle" x="974" y="-316.8" font-family="Times,serif" font-size="14.00" fill="#000000">NavigationModule</text>
</g>
<!-- AppRoutingModule&#45;&gt;NavigationModule -->
<g id="edge10" class="edge">
<title>AppRoutingModule&#45;&gt;NavigationModule</title>
<path fill="none" stroke="#000000" d="M911.3343,-256C917.2108,-256 921.0098,-256 921.0098,-256 921.0098,-256 921.0098,-292.8939 921.0098,-292.8939"/>
<polygon fill="#000000" stroke="#000000" points="917.5099,-292.8938 921.0098,-302.8939 924.5099,-292.8939 917.5099,-292.8938"/>
</g>
<!-- NavigationModule&#45;&gt;AppModule -->
<g id="edge3" class="edge">
<title>NavigationModule&#45;&gt;AppModule</title>
<path fill="none" stroke="#000000" d="M974,-339.0267C974,-359.7672 974,-391 974,-391 974,-391 685.6907,-391 685.6907,-391"/>
<polygon fill="#000000" stroke="#000000" points="685.6907,-387.5001 675.6907,-391 685.6906,-394.5001 685.6907,-387.5001"/>
</g>
<!-- SidebarComponent  -->
<g id="node11" class="node">
<title>SidebarComponent </title>
<polygon fill="#fb8072" stroke="#000000" points="1202.596,-415 1075.404,-415 1075.404,-379 1202.596,-379 1202.596,-415"/>
<text text-anchor="middle" x="1139" y="-392.8" font-family="Times,serif" font-size="14.00" fill="#000000">SidebarComponent </text>
</g>
<!-- NavigationModule&#45;&gt;SidebarComponent  -->
<g id="edge11" class="edge">
<title>NavigationModule&#45;&gt;SidebarComponent </title>
<path fill="none" stroke="#000000" stroke-dasharray="5,2" d="M1014.5858,-339.1985C1014.5858,-363.3563 1014.5858,-403 1014.5858,-403 1014.5858,-403 1065.335,-403 1065.335,-403"/>
<polygon fill="#000000" stroke="#000000" points="1065.3351,-406.5001 1075.335,-403 1065.335,-399.5001 1065.3351,-406.5001"/>
</g>
<!-- ToolbarComponent  -->
<g id="node12" class="node">
<title>ToolbarComponent </title>
<polygon fill="#fb8072" stroke="#000000" points="1349.6509,-415 1220.3491,-415 1220.3491,-379 1349.6509,-379 1349.6509,-415"/>
<text text-anchor="middle" x="1285" y="-392.8" font-family="Times,serif" font-size="14.00" fill="#000000">ToolbarComponent </text>
</g>
<!-- NavigationModule&#45;&gt;ToolbarComponent  -->
<g id="edge12" class="edge">
<title>NavigationModule&#45;&gt;ToolbarComponent </title>
<path fill="none" stroke="#000000" stroke-dasharray="5,2" d="M994.2929,-339.1467C994.2929,-352.7395 994.2929,-369 994.2929,-369 994.2929,-369 1232.875,-369 1232.875,-369 1232.875,-369 1232.875,-369.9793 1232.875,-369.9793"/>
<polygon fill="#000000" stroke="#000000" points="1229.3751,-368.793 1232.875,-378.793 1236.3751,-368.7931 1229.3751,-368.793"/>
</g>
<!-- SecurityModule -->
<g id="node5" class="node">
<title>SecurityModule</title>
<polygon fill="#8dd3c7" stroke="#000000" points="1035.2036,-274 1032.2036,-278 1011.2036,-278 1008.2036,-274 928.7964,-274 928.7964,-238 1035.2036,-238 1035.2036,-274"/>
<text text-anchor="middle" x="982" y="-251.8" font-family="Times,serif" font-size="14.00" fill="#000000">SecurityModule</text>
</g>
<!-- SecurityModule&#45;&gt;AppModule -->
<g id="edge4" class="edge">
<title>SecurityModule&#45;&gt;AppModule</title>
<path fill="none" stroke="#000000" d="M981.8885,-274.0449C981.8885,-281.749 981.8885,-289 981.8885,-289 981.8885,-289 633.6884,-289 633.6884,-289 633.6884,-289 633.6884,-368.6793 633.6884,-368.6793"/>
<polygon fill="#000000" stroke="#000000" points="630.1885,-368.6792 633.6884,-378.6793 637.1885,-368.6793 630.1885,-368.6792"/>
</g>
<!-- LoginPageComponent  -->
<g id="node22" class="node">
<title>LoginPageComponent </title>
<polygon fill="#fb8072" stroke="#000000" points="1220.9882,-339 1075.0118,-339 1075.0118,-303 1220.9882,-303 1220.9882,-339"/>
<text text-anchor="middle" x="1148" y="-316.8" font-family="Times,serif" font-size="14.00" fill="#000000">LoginPageComponent </text>
</g>
<!-- SecurityModule&#45;&gt;LoginPageComponent  -->
<g id="edge23" class="edge">
<title>SecurityModule&#45;&gt;LoginPageComponent </title>
<path fill="none" stroke="#000000" stroke-dasharray="5,2" d="M1035.4215,-262C1064.5738,-262 1094.7884,-262 1094.7884,-262 1094.7884,-262 1094.7884,-292.9775 1094.7884,-292.9775"/>
<polygon fill="#000000" stroke="#000000" points="1091.2885,-292.9774 1094.7884,-302.9775 1098.2885,-292.9775 1091.2885,-292.9774"/>
</g>
<!-- ApiTokenInterceptorService -->
<g id="node7" class="node">
<title>ApiTokenInterceptorService</title>
<ellipse fill="#fdb462" stroke="#000000" cx="473" cy="-321" rx="121.5085" ry="18"/>
<text text-anchor="middle" x="473" y="-316.8" font-family="Times,serif" font-size="14.00" fill="#000000">ApiTokenInterceptorService</text>
</g>
<!-- ApiTokenInterceptorService&#45;&gt;AppModule -->
<g id="edge6" class="edge">
<title>ApiTokenInterceptorService&#45;&gt;AppModule</title>
<path fill="none" stroke="#000000" d="M585.8512,-327.7445C585.8512,-346.3445 585.8512,-397 585.8512,-397 585.8512,-397 586.4806,-397 586.4806,-397"/>
<polygon fill="#000000" stroke="#000000" points="582.1458,-400.5002 592.1458,-397 582.1457,-393.5002 582.1458,-400.5002"/>
</g>
<!-- PagesModule -->
<g id="node8" class="node">
<title>PagesModule</title>
<polygon fill="#8dd3c7" stroke="#000000" points="893.2064,-198 890.2064,-202 869.2064,-202 866.2064,-198 800.7936,-198 800.7936,-162 893.2064,-162 893.2064,-198"/>
<text text-anchor="middle" x="847" y="-175.8" font-family="Times,serif" font-size="14.00" fill="#000000">PagesModule</text>
</g>
<!-- PagesModule&#45;&gt;AppRoutingModule -->
<g id="edge7" class="edge">
<title>PagesModule&#45;&gt;AppRoutingModule</title>
<path fill="none" stroke="#000000" d="M847,-198.0109C847,-198.0109 847,-227.855 847,-227.855"/>
<polygon fill="#000000" stroke="#000000" points="843.5001,-227.8549 847,-237.855 850.5001,-227.855 843.5001,-227.8549"/>
</g>
<!-- AllIssuesPageComponent  -->
<g id="node18" class="node">
<title>AllIssuesPageComponent </title>
<polygon fill="#fb8072" stroke="#000000" points="385.1411,-122 220.8589,-122 220.8589,-86 385.1411,-86 385.1411,-122"/>
<text text-anchor="middle" x="303" y="-99.8" font-family="Times,serif" font-size="14.00" fill="#000000">AllIssuesPageComponent </text>
</g>
<!-- PagesModule&#45;&gt;AllIssuesPageComponent  -->
<g id="edge19" class="edge">
<title>PagesModule&#45;&gt;AllIssuesPageComponent </title>
<path fill="none" stroke="#000000" stroke-dasharray="5,2" d="M800.6636,-184C680.5241,-184 368.2831,-184 368.2831,-184 368.2831,-184 368.2831,-132.1532 368.2831,-132.1532"/>
<polygon fill="#000000" stroke="#000000" points="371.7832,-132.1532 368.2831,-122.1532 364.7832,-132.1533 371.7832,-132.1532"/>
</g>
<!-- ReportIssuePageComponent  -->
<g id="node19" class="node">
<title>ReportIssuePageComponent </title>
<polygon fill="#fb8072" stroke="#000000" points="202.411,-122 23.589,-122 23.589,-86 202.411,-86 202.411,-122"/>
<text text-anchor="middle" x="113" y="-99.8" font-family="Times,serif" font-size="14.00" fill="#000000">ReportIssuePageComponent </text>
</g>
<!-- PagesModule&#45;&gt;ReportIssuePageComponent  -->
<g id="edge20" class="edge">
<title>PagesModule&#45;&gt;ReportIssuePageComponent </title>
<path fill="none" stroke="#000000" stroke-dasharray="5,2" d="M800.807,-191C639.7871,-191 113,-191 113,-191 113,-191 113,-132.0265 113,-132.0265"/>
<polygon fill="#000000" stroke="#000000" points="116.5001,-132.0264 113,-122.0265 109.5001,-132.0265 116.5001,-132.0264"/>
</g>
<!-- UserPageComponent  -->
<g id="node20" class="node">
<title>UserPageComponent </title>
<polygon fill="#fb8072" stroke="#000000" points="541.4714,-122 402.5286,-122 402.5286,-86 541.4714,-86 541.4714,-122"/>
<text text-anchor="middle" x="472" y="-99.8" font-family="Times,serif" font-size="14.00" fill="#000000">UserPageComponent </text>
</g>
<!-- PagesModule&#45;&gt;UserPageComponent  -->
<g id="edge21" class="edge">
<title>PagesModule&#45;&gt;UserPageComponent </title>
<path fill="none" stroke="#000000" stroke-dasharray="5,2" d="M800.6415,-177C700.31,-177 472,-177 472,-177 472,-177 472,-132.0449 472,-132.0449"/>
<polygon fill="#000000" stroke="#000000" points="475.5001,-132.0449 472,-122.0449 468.5001,-132.045 475.5001,-132.0449"/>
</g>
<!-- SidebarComponent -->
<g id="node9" class="node">
<title>SidebarComponent</title>
<polygon fill="#ffffb3" stroke="#000000" points="1498.0954,-415 1373.9046,-415 1373.9046,-379 1498.0954,-379 1498.0954,-415"/>
<text text-anchor="middle" x="1436" y="-392.8" font-family="Times,serif" font-size="14.00" fill="#000000">SidebarComponent</text>
</g>
<!-- SidebarComponent&#45;&gt;NavigationModule -->
<g id="edge8" class="edge">
<title>SidebarComponent&#45;&gt;NavigationModule</title>
<path fill="none" stroke="#000000" d="M1380.473,-378.8903C1380.473,-369.103 1380.473,-359 1380.473,-359 1380.473,-359 933.4142,-359 933.4142,-359 933.4142,-359 933.4142,-349.1097 933.4142,-349.1097"/>
<polygon fill="#000000" stroke="#000000" points="936.9143,-349.1096 933.4142,-339.1097 929.9143,-349.1097 936.9143,-349.1096"/>
</g>
<!-- ToolbarComponent -->
<g id="node10" class="node">
<title>ToolbarComponent</title>
<polygon fill="#ffffb3" stroke="#000000" points="1641.6513,-415 1516.3487,-415 1516.3487,-379 1641.6513,-379 1641.6513,-415"/>
<text text-anchor="middle" x="1579" y="-392.8" font-family="Times,serif" font-size="14.00" fill="#000000">ToolbarComponent</text>
</g>
<!-- ToolbarComponent&#45;&gt;NavigationModule -->
<g id="edge9" class="edge">
<title>ToolbarComponent&#45;&gt;NavigationModule</title>
<path fill="none" stroke="#000000" d="M1579,-378.8533C1579,-365.2605 1579,-349 1579,-349 1579,-349 953.7071,-349 953.7071,-349 953.7071,-349 953.7071,-348.0207 953.7071,-348.0207"/>
<polygon fill="#000000" stroke="#000000" points="957.2072,-349.2069 953.7071,-339.207 950.2072,-349.207 957.2072,-349.2069"/>
</g>
<!-- AdminPageComponent -->
<g id="node13" class="node">
<title>AdminPageComponent</title>
<polygon fill="#ffffb3" stroke="#000000" points="1279.9326,-122 1132.0674,-122 1132.0674,-86 1279.9326,-86 1279.9326,-122"/>
<text text-anchor="middle" x="1206" y="-99.8" font-family="Times,serif" font-size="14.00" fill="#000000">AdminPageComponent</text>
</g>
<!-- AdminPageComponent&#45;&gt;PagesModule -->
<g id="edge13" class="edge">
<title>AdminPageComponent&#45;&gt;PagesModule</title>
<path fill="none" stroke="#000000" d="M1191.2571,-122.1532C1191.2571,-145.7566 1191.2571,-184 1191.2571,-184 1191.2571,-184 903.428,-184 903.428,-184"/>
<polygon fill="#000000" stroke="#000000" points="903.4281,-180.5001 893.428,-184 903.428,-187.5001 903.4281,-180.5001"/>
</g>
<!-- AdminPageComponent&#45;&gt;PagesModule -->
<g id="edge14" class="edge">
<title>AdminPageComponent&#45;&gt;PagesModule</title>
<path fill="none" stroke="#000000" d="M1161.7706,-122.0449C1161.7706,-143.6623 1161.7706,-177 1161.7706,-177 1161.7706,-177 903.1074,-177 903.1074,-177"/>
<polygon fill="#000000" stroke="#000000" points="903.1075,-173.5001 893.1074,-177 903.1074,-180.5001 903.1075,-173.5001"/>
</g>
<!-- AllIssuesPageComponent -->
<g id="node14" class="node">
<title>AllIssuesPageComponent</title>
<polygon fill="#ffffb3" stroke="#000000" points="1114.1414,-122 953.8586,-122 953.8586,-86 1114.1414,-86 1114.1414,-122"/>
<text text-anchor="middle" x="1034" y="-99.8" font-family="Times,serif" font-size="14.00" fill="#000000">AllIssuesPageComponent</text>
</g>
<!-- AllIssuesPageComponent&#45;&gt;PagesModule -->
<g id="edge15" class="edge">
<title>AllIssuesPageComponent&#45;&gt;PagesModule</title>
<path fill="none" stroke="#000000" d="M994.3906,-122.0348C994.3906,-141.5762 994.3906,-170 994.3906,-170 994.3906,-170 903.2309,-170 903.2309,-170"/>
<polygon fill="#000000" stroke="#000000" points="903.2309,-166.5001 893.2309,-170 903.2309,-173.5001 903.2309,-166.5001"/>
</g>
<!-- IssueDetailsPageComponent -->
<g id="node15" class="node">
<title>IssueDetailsPageComponent</title>
<polygon fill="#ffffb3" stroke="#000000" points="935.4608,-122 758.5392,-122 758.5392,-86 935.4608,-86 935.4608,-122"/>
<text text-anchor="middle" x="847" y="-99.8" font-family="Times,serif" font-size="14.00" fill="#000000">IssueDetailsPageComponent</text>
</g>
<!-- IssueDetailsPageComponent&#45;&gt;PagesModule -->
<g id="edge16" class="edge">
<title>IssueDetailsPageComponent&#45;&gt;PagesModule</title>
<path fill="none" stroke="#000000" d="M847,-122.0109C847,-122.0109 847,-151.855 847,-151.855"/>
<polygon fill="#000000" stroke="#000000" points="843.5001,-151.8549 847,-161.855 850.5001,-151.855 843.5001,-151.8549"/>
</g>
<!-- ReportIssuePageComponent -->
<g id="node16" class="node">
<title>ReportIssuePageComponent</title>
<polygon fill="#ffffb3" stroke="#000000" points="740.9115,-122 565.0885,-122 565.0885,-86 740.9115,-86 740.9115,-122"/>
<text text-anchor="middle" x="653" y="-99.8" font-family="Times,serif" font-size="14.00" fill="#000000">ReportIssuePageComponent</text>
</g>
<!-- ReportIssuePageComponent&#45;&gt;PagesModule -->
<g id="edge17" class="edge">
<title>ReportIssuePageComponent&#45;&gt;PagesModule</title>
<path fill="none" stroke="#000000" d="M696.993,-122.0348C696.993,-141.5762 696.993,-170 696.993,-170 696.993,-170 790.7689,-170 790.7689,-170"/>
<polygon fill="#000000" stroke="#000000" points="790.769,-173.5001 800.7689,-170 790.7689,-166.5001 790.769,-173.5001"/>
</g>
<!-- UserPageComponent -->
<g id="node17" class="node">
<title>UserPageComponent</title>
<polygon fill="#ffffb3" stroke="#000000" points="1432.4706,-122 1297.5294,-122 1297.5294,-86 1432.4706,-86 1432.4706,-122"/>
<text text-anchor="middle" x="1365" y="-99.8" font-family="Times,serif" font-size="14.00" fill="#000000">UserPageComponent</text>
</g>
<!-- UserPageComponent&#45;&gt;PagesModule -->
<g id="edge18" class="edge">
<title>UserPageComponent&#45;&gt;PagesModule</title>
<path fill="none" stroke="#000000" d="M1342.2542,-122.0265C1342.2542,-147.5093 1342.2542,-191 1342.2542,-191 1342.2542,-191 903.1476,-191 903.1476,-191"/>
<polygon fill="#000000" stroke="#000000" points="903.1476,-187.5001 893.1476,-191 903.1475,-194.5001 903.1476,-187.5001"/>
</g>
<!-- LoginPageComponent -->
<g id="node21" class="node">
<title>LoginPageComponent</title>
<polygon fill="#ffffb3" stroke="#000000" points="1386.9874,-339 1245.0126,-339 1245.0126,-303 1386.9874,-303 1386.9874,-339"/>
<text text-anchor="middle" x="1316" y="-316.8" font-family="Times,serif" font-size="14.00" fill="#000000">LoginPageComponent</text>
</g>
<!-- LoginPageComponent&#45;&gt;SecurityModule -->
<g id="edge22" class="edge">
<title>LoginPageComponent&#45;&gt;SecurityModule</title>
<path fill="none" stroke="#000000" d="M1262.3612,-302.7157C1262.3612,-281.6789 1262.3612,-250 1262.3612,-250 1262.3612,-250 1045.3937,-250 1045.3937,-250"/>
<polygon fill="#000000" stroke="#000000" points="1045.3937,-246.5001 1035.3937,-250 1045.3937,-253.5001 1045.3937,-246.5001"/>
</g>
</g>
</svg>
